<?xml version="1.0" standalone="no"?>
<!DOCTYPE svg PUBLIC "-//W3C//DTD SVG 1.1//EN" "http://www.w3.org/Graphics/SVG/1.1/DTD/svg11.dtd" >
<svg xmlns="http://www.w3.org/2000/svg">
<metadata></metadata>
<defs>
<font id="bouquetregular" horiz-adv-x="1181" >
<font-face units-per-em="2048" ascent="1593" descent="-455" />
<missing-glyph horiz-adv-x="405" />
<glyph horiz-adv-x="2048" />
<glyph horiz-adv-x="2048" />
<glyph unicode="&#xd;" horiz-adv-x="681" />
<glyph unicode=" "  horiz-adv-x="405" />
<glyph unicode="&#x09;" horiz-adv-x="405" />
<glyph unicode="&#xa0;" horiz-adv-x="405" />
<glyph unicode="!" horiz-adv-x="657" d="M47 168q-20 27 10 104q29 72 84 160q14 27 31 33q14 6 31 -4q18 -10 47 -37q39 -33 123 -65.5t94 -49.5q4 -8 4 -12v-10q0 -6 -2 -13l-2 -14q0 -6 -6 -20q-2 -4 -3 -9.5t-3 -9.5t-2 -6q-12 -39 -68 -129q-55 -88 -82 -88l6 2q-45 0 -125 43t-137 125zM182 653 q-10 59 56 215l131 328q68 172 67 260q0 57 6.5 69.5t46.5 6.5q121 -18 240 -80q119 -61 119 -125q0 -59 -174 -319q-172 -256 -193 -306q-34 -72 25 -86l2 -4q47 -16 -2 -53q-70 -47 -166 -47q-31 0 -92 55q-63 55 -66 86z" />
<glyph unicode="&#x22;" horiz-adv-x="784" d="M12 721q-6 10 4 33q8 18 31 57q25 43 35 68q25 63 24 112q0 51 -8 68q-12 23 -32 47q-6 8 -13.5 15t-11.5 12l-2 4q-31 47 8 184t105 221q18 25 47 29q16 -4 16 -19q0 -23 -2 -36q-4 -23 2 -46q6 -29 37 -49q29 -20 96 -49q66 -29 68 -31q35 109 86 177q23 23 45 24 q16 -4 16 -18q0 -16 -6 -35t0 -41q10 -35 57 -62q55 -31 99 -47q49 -18 55 -28q4 -8 4 -13v-8v-10q0 -8 -2 -12q-4 -6 -6 -19q-4 -16 -6 -22q-16 -47 -43 -111q-27 -61 -99 -174q-72 -111 -147 -166q-23 -14 -43 -24q-18 -8 -35 -9q-14 0 -16 9q-6 10 4 30q12 23 31 54 q18 28 32 61l-8 -4q25 57 25 104q0 49 -8 66q-8 18 -31 43q-6 6 -12.5 13t-10.5 11l-2 5q-2 0 -2 4q-117 -279 -274 -394q-25 -16 -49 -24q-23 -8 -39.5 -8t-18.5 8z" />
<glyph unicode="#" horiz-adv-x="1036" d="M-27 559q0 18 37 43t113 49q80 27 166 29h22q2 8 54 147q-137 8 -254 -24q-33 -12 -33 12q0 16 37 43t110 49q74 23 152 19q18 0 24 -2q102 297 111 311v4q4 8 4 10t4 11q2 4 6 8t11 4q10 0 16 -2q8 -4 25 -13q35 -23 36 -51q4 -31 -6 -43q-2 -14 -84 -248 q133 -14 166 -16q121 334 123 344l2 4v10q0 2 4 11q2 4 6 8t11 4q10 0 16 -2q8 -4 25 -12q35 -23 36 -52q4 -31 -6 -43q-2 -20 -96 -276q147 -6 233 2l11 -4q18 4 24 0t4 -12q-4 -29 -57 -68q-55 -41 -82 -43q-96 0 -166 4q-4 -10 -26 -67q-12 -33 -27 -76q172 -23 281 -6 q37 2 38 0v-7q-2 -29 -61 -69q-57 -39 -86 -39q-20 0 -209 10q-88 -266 -90 -282q0 -20 -2 -32.5t-2 -33.5v-25q-6 -20 -25 -20q-25 0 -57 29q-29 27 -33 55q0 8 2 16l6 33l9 43q33 117 73 227q-4 0 -18 2.5t-30.5 4.5t-33.5 4q-20 2 -49.5 6t-38.5 4q-96 -279 -102 -313 q-10 -57 -6 -93q-6 -20 -25 -20q-29 0 -61 29q-29 27 -33 55q0 8 2 16l6 33l8 43q25 90 82 260q-139 12 -262 -16q-35 -6 -35 14zM434 674q8 -2 72 -12q14 -2 35.5 -5.5t36 -5.5t24.5 -4v4q0 2 3 10.5t8 22.5t12 29l26 80l-82 12l-82 12l-26 -69q-6 -18 -15.5 -43t-11.5 -31 z" />
<glyph unicode="$" horiz-adv-x="1081" d="M20 340q-39 252 228 401q49 29 59 15q8 -12 -12 -56q-49 -106 -55 -239q-6 -129 22 -217q29 -86 68 -86q156 0 76 446q-12 66 -44 174q-31 106 -43 178t0 123q20 106 164 197q141 90 291 123q66 141 78 252q2 37 29 26q35 -14 75 -61q39 -47 37 -74q-4 -27 -55 -139 q102 -23 199 -76q98 -55 104 -113q6 -82 -84 -186q-87 -103 -196 -162l4 -8q-39 -23 -56 -12q-14 8 4 41q29 55 50 117q20 59 30 108q14 72 17 84q6 41 4 59q-2 20 -8 21q-55 0 -147.5 -80t-70.5 -164q8 -29 109 -280q98 -246 111 -342q16 -133 -142 -269 q-158 -137 -344 -157q-70 -133 -69 -242q0 -18 -6.5 -24.5t-16.5 -2.5q-23 6 -39 21q-18 14 -37 49q-18 33 -14 86q4 59 20 135q-123 37 -223 137q-100 102 -117 197z" />
<glyph unicode="%" horiz-adv-x="1206" d="M-33 160q291 334 486 606q-102 12 -217 86q-117 115 -80 276q61 131 188 234q125 100 209 100q78 0 184 -49q109 -49 111 -100l-2 -6q6 -258 -184 -609q-195 -356 -457 -655q-10 -12 -45 -31q-37 -18 -62 -18q-37 0 -92 73.5t-39 92.5zM461 928q-6 -35 4 -56 q10 -18 35 -22q55 78 86 156l-13 -2q70 178 86 251q16 74 -14 86q-14 6 -36.5 -16t-41.5 -65q-20 -49 -30 -76q-20 -55 -23 -64q-2 -12 -18 -57q-18 -49 -23 -72q-6 -31 -12 -63zM518 279q39 201 68 245q43 76 164 135q117 57 200 58q66 0 166 -68q103 -68 105 -119h4 q8 -145 -178 -411q-29 -43 -89 -78q-61 -37 -100 -37q-135 0 -248 96q-111 96 -92 179zM743 340q-47 -209 19 -197q29 9 92 179l-2 -3q117 303 27 304q-14 0 -37 -25t-49.5 -92.5t-49.5 -165.5z" />
<glyph unicode="&#x26;" horiz-adv-x="1271" d="M14 322q-16 123 52 243q68 125 172 201q104 78 198 80q-78 256 -35 356q51 119 228 187q174 68 327 67q72 0 197 -86t129 -160q4 -78 -97.5 -160.5t-307.5 -172.5q41 -82 86 -166q25 47 38 102q14 61 17 68q4 20 12 22q33 8 113 -53q78 -59 100 -105q10 -20 10 -50.5 t-10 -51.5q-49 -78 -119 -154q137 -173 301 -331l-8 -2q39 -37 -10 -82q-39 -41 -172 -129q-131 -88 -145 -92q-14 -2 -56 34q-143 123 -268 301q-133 -90 -248 -141t-168 -51q-88 0 -205 110q-115 109 -131 216zM442.5 209q5.5 -25 30.5 -25l4 -2q47 0 191 148 q-78 125 -129 239q-25 -68 -58 -166q-18 -53 -32 -116q-12 -53 -6.5 -78zM799 1122q-4 -37 24 -123q45 37 86 80q41 45 62 82q25 45 35 74q12 33 8 55.5t-19 28.5q-39 14 -112.5 -49.5t-79.5 -145.5z" />
<glyph unicode="'" horiz-adv-x="454" d="M20 682q-6 10 5 33q8 18 30 57q25 43 35 68l-2 -2q25 63 25 112q0 51 -9 68q-12 23 -32 47q-6 8 -13.5 15t-9.5 12l-4 4q-31 47 8 184q41 137 105 221q18 25 47 29q16 -4 16 -19q0 -23 -2 -36q-4 -23 2 -45q8 -45 115 -93q104 -47 108 -53q4 -8 5 -12v-10 q0 -6 -2.5 -12.5t-2.5 -14.5q0 -6 -6 -21l-8 -24q-12 -43 -43 -119q-31 -74 -104.5 -190.5t-155.5 -173.5q-25 -14 -49 -25q-23 -8 -39 -8t-19 8z" />
<glyph unicode="(" horiz-adv-x="671" d="M23 197q-18 102 79 323q98 219 244 434q141 209 299 375q154 162 234 162l2 -2q55 0 141 -33q76 -27 55 -55q-197 -276 -323 -518q-131 -252 -191 -424q-55 -166 -82 -307q-25 -135 -18.5 -203t24.5 -86q78 -78 -49 -78q-100 0 -248 147q-145 145 -167 265z" />
<glyph unicode=")" horiz-adv-x="845" d="M-195 -37q182 252 306 483q123 233 172 394q47 154 63 293q16 135 4 196q-12 66 -31 84q-78 78 50 78q109 0 287 -129t196 -240q18 -100 -96 -325q-113 -223 -271 -443q-154 -213 -313 -389q-158 -172 -217 -184l-8 -4q-23 -4 -90.5 82t-51.5 104z" />
<glyph unicode="*" horiz-adv-x="878" d="M-41 1126q4 10 14 19q119 113 179 119q41 2 104 0l-43 30q-18 14 -41 25q-4 2 -35 14q-20 8 -28 10q-16 4 -21 5q-6 0 -14 4h-6q-16 4 -23 12q-6 8 6 31q14 25 49 59q39 39 100.5 76t75.5 37q20 0 80 -47q57 -45 129 -136q129 139 187 140q23 0 73 -23q49 -23 29 -49 q-70 -100 -123 -190q223 2 346 18q16 4 35 12q4 2 9.5 5t8.5 4.5l7 3.5l8 4q10 4 27 12q12 6 20 4q10 -4 12 -14l-14 -8q8 -39 -72 -144q-80 -106 -118 -108q-45 -4 -258 20q33 -74 75 -186q10 -18 -8 -37t-57 -37q-41 -18 -49 -18q-8 -2 -19 18q-61 115 -104 180 q-96 -213 -68 -268q12 -29 4 -49.5t-39 -20.5q-49 0 -131 80t-92 139q-12 70 96 240q-162 18 -235 2q-80 -12 -76 12z" />
<glyph unicode="+" horiz-adv-x="915" d="M6 612.5q-2 51.5 25 75.5q49 47 114 76q61 27 86 24q63 -2 144 -12l41 170q10 31 12 55q2 16 2 43v25q4 16 37 37q35 23 61 22q31 0 84 -28.5t47 -48.5l-18 -7q-4 -27 -86 -286q172 -16 195 -13q37 6 59 35t31 29q20 0 34 -33q16 -35 19 -63q4 -55 -55 -105 q-57 -47 -105 -51q-47 -2 -219 16l-29 -149q0 -39 13 -74q12 -33 12 -41q0 -23 -45 -61.5t-92 -38.5q-23 0 -72 53t-49 74q0 29 12 74q4 14 7 26.5t5.5 21.5t2.5 11l10 31l18 49q2 6 6 16t6.5 18.5t4.5 14.5l-138 14q-45 2 -82 -10q-35 -12 -49 -26.5t-18 -14.5 q-29 0 -31 51.5z" />
<glyph unicode="," horiz-adv-x="471" d="M27 -426q-4 10 12 29q2 2 39 53q23 31 39 68h-4q27 61 26 116q0 53 -12 74q-10 18 -41 49q-27 27 -31 35q-43 63 35 270q27 70 72 105q41 31 57 -29q12 -45 129 -94q119 -49 121 -57q4 -8 4 -13v-10q0 -6 -2 -12l-2 -15q0 -4 -6 -20q-2 -4 -3 -9t-3 -9.5t-2 -6.5 q-14 -51 -45 -123q-35 -80 -111 -194q-74 -113 -164 -180q-25 -16 -51 -27q-23 -8 -39 -8t-18 8z" />
<glyph unicode="-" horiz-adv-x="921" d="M80 614.5q-2 51.5 24 75.5q49 47 115 76q61 29 86 25q70 -4 154 -15l178 -18q76 -8 94 -6q37 6 59.5 34.5t30.5 28.5l-8 -8q20 0 35 -33q16 -35 18 -63q2 -55 -55 -105q-57 -47 -104 -51q-63 -4 -234 27q-164 29 -213 32q-45 2 -82 -10q-35 -12 -49 -26.5t-18 -14.5 q-29 0 -31 51.5z" />
<glyph unicode="." horiz-adv-x="471" d="M66 168q-41 59 24 219q10 29 19 41q12 16 24 29q14 14 43 12q31 -4 68 -20q14 -6 92 -43q92 -45 115 -58q39 -23 47 -37q4 -8 4 -12v-10q0 -6 -2 -13l-2 -14q0 -4 -6 -20l-9 -25q-12 -41 -67 -129t-82 -88h-17h-18h-20q-12 0 -25 4l-25 10q-20 8 -28 15q-25 18 -31 22 q-12 8 -33 29l-35 39q-18 20 -36 49z" />
<glyph unicode="/" horiz-adv-x="833" d="M-236 -283q-12 8 29 56q55 63 586 889q528 823 547 845q28 35 110 72l-4 -6q82 35 74 2q0 -2 -2 -6q-6 -8 -19 -25q-47 -63 -563 -868q-528 -823 -598 -899q-33 -39 -100 -60q-8 -2 -29 -6q-18 -2 -31 6z" />
<glyph unicode="0" horiz-adv-x="1226" d="M43 393q-18 139 82 400q102 262 248 469q147 209 248 208q203 0 399 -81q201 -84 221 -132q31 -80 21 -235q-8 -154 -43 -258q-27 -96 -68 -178l2 2q0 -4 -2 -4q-121 -256 -330 -420q-205 -162 -368 -162q-98 0 -248 139q-145 137 -162 252zM569 334q-12 -141 35 -141 l2 -9q45 0 125 183q82 186 133 424q27 129 35 170q16 86 23 141q10 78 4 110q-6 37 -27 37q-47 0 -166 -309q-143 -367 -164 -606z" />
<glyph unicode="1" horiz-adv-x="751" d="M-23 315q2 92 56 246q8 25 49 111l94 202q35 74 88 195l-10 2q-23 -14 -57 -51l-66 -68q-31 -31 -43 -30q-27 0 -27 34q0 51 68 172q66 117 158 222q90 100 135 110q47 6 104 -14q74 -25 148 -57q82 -38 92 -48l-8 -2q14 -16 16 -43q4 -27 0 -55q-2 -14 -10 -57 q-6 -27 -12 -51l-13 -39l-6 -17q-215 -627 -239 -772q-6 -33 -15 -108q-2 -16 -4 -41t-4 -33q-4 -23 -8 -31q-12 -18 -73.5 -55t-98.5 -37q-68 0 -191 131t-123 184z" />
<glyph unicode="2" horiz-adv-x="1021" d="M-154 10q-6 27 13 56q6 12 41 57q31 55 225 283q184 217 201 233q-104 86 -195 188q-90 102 -86 154q6 100 158 256q152 154 262 207q53 29 197 -8q145 -37 274 -111q131 -74 139 -137q20 -143 -110 -309q-133 -166 -473 -320q-8 -2 -13 -6l105 -25l112 -26 q41 -10 86 -19q41 -8 68 -8q33 0 51 31q20 33 29 59q10 29 22 29l4 -6q23 0 43.5 -55.5t24.5 -92.5q6 -76 -166 -266t-254 -190q-104 0 -290.5 71.5t-194.5 71.5q-51 0 -142 -64l-55 -61v-2q-29 -18 -39 -18q-31 0 -37 28zM397 735q276 395 269 537q-3 57 -50 39l-2 -2 q-41 -16 -108 -127q-66 -106 -107 -246q-39 -135 -2 -201z" />
<glyph unicode="3" horiz-adv-x="1071" d="M-29 313q-12 88 68 234q80 145 192 203q47 25 68 16q20 -8 12 -49q-106 -373 -110 -449q-6 -72 26 -71q47 0 142 147q129 193 141 324q6 90 -66 94q-20 0 -6 26q12 23 47 41q84 92 148 154q-268 43 -350 43q-35 0 -54 -25q-20 -27 -30 -51q-12 -27 -25 -26q-20 0 -39 55 q-16 51 -20 94q-6 74 159 232q168 158 240 157q106 0 303 -55t207 -55q14 0 86 41t107 16q31 -18 -43 -131q-70 -106 -177 -217q-100 -105 -141 -105l-22 2q-14 0 -21 3q-76 -59 -141 -117q299 -61 311 -144q16 -96 -31 -237q-45 -139 -135 -266q-47 -61 -186 -129 q-141 -68 -223 -68q-133 0 -276.5 104.5t-160.5 208.5z" />
<glyph unicode="4" horiz-adv-x="1069" d="M-78 401q-6 29 12 56q16 29 58 78q45 66 90 116q203 256 307 434q102 176 105 252q0 39 -15 56q-16 20 -33 22q-12 2 -32 10q-14 6 -13 21q4 29 68 29q63 0 154 -25q80 -23 178 -59q86 -33 155 -80q66 -45 76 -86q10 -45 -33 -154q-43 -113 -75 -147q-31 -35 -105 -61.5 t-190 -61.5q-113 -33 -199 -68q-16 -10 -29 -24q6 0 44 -6.5t73 -10.5l141 -18q106 88 136 92q100 0 120 -31q6 -10 -10 -90q10 -2 37 -2q37 0 62 10q23 10 28 23q8 16 12 22q7 11 17 11l-2 6q20 0 37 -35q14 -33 12 -62q0 -47 -94 -180q-96 -135 -129 -135q-2 0 -8.5 1 t-18.5 2t-22 1q-23 -176 -50 -213q-12 -18 -73.5 -55t-94.5 -37q-45 0 -129 47q-84 45 -147 105q-63 57 -63 90q0 25 30 80q35 61 64 96q-217 63 -242 63q-41 0 -68 -18l-20 -21l-2 -2l-43 -49v-2q-27 -18 -43 -18q-27 0 -33 28z" />
<glyph unicode="5" horiz-adv-x="1011" d="M-41 336q-12 84 55.5 182t184.5 160q47 23 65.5 16.5t9.5 -45.5q-90 -326 -92 -352q-16 -90 27 -90q51 0 168 199q117 201 117 309q0 39 -19 55q-20 16 -63 16q-33 2 -119 -12q-80 -14 -105 -14q-70 2 -2 219q72 227 185 387q72 98 116 98q82 0 299 -49t234 -49 q23 0 104.5 57.5t104.5 44.5q33 -18 -39 -145q-68 -123 -170 -246q-98 -119 -139 -123q-68 -8 -271 37q-200 45 -225 49l-14 4q-27 4 -56 -92q-18 -70 -4 -67q2 0 6 4q76 70 172 61q74 -6 271 -102q195 -94 203 -148q12 -94 -35 -237q-45 -139 -135 -266q-47 -61 -187 -129 q-141 -68 -225 -68q-129 0 -268 115q-137 115 -154 221z" />
<glyph unicode="6" horiz-adv-x="989" d="M-29 391q-23 115 39 303q61 193 160 361q98 170 209 295t182 125q16 0 129 -43q111 -41 217 -99q104 -55 82 -84q-10 -8 -37 -18q-23 -8 -63 -25q-35 -14 -107 -92q-70 -78 -153 -209q137 8 239 -18q100 -27 123 -66q70 -137 21 -295l-6 -12q-88 -248 -250 -387 q-158 -137 -383 -137q-90 0 -235.5 147.5t-166.5 253.5zM354 184q11 -57 31 -61l-2 4q25 -4 90.5 127t91.5 223q82 281 19 283l-31 -8q-49 -47 -119 -195q-51 -104 -69.5 -210.5t-10.5 -162.5z" />
<glyph unicode="7" horiz-adv-x="952" d="M-4 303q0 115 227 350q74 80 352 305q-283 45 -368 46q-35 0 -53 -27q-20 -31 -31 -51q-12 -25 -25 -25q-23 0 -41 55q-16 51 -20 95q-6 74 166 243q174 170 243 170q106 0 325.5 -55t227.5 -55q14 0 92 41t117 16q27 -14 -43 -113q-72 -98 -178 -202 q-104 -102 -172 -144q-125 -231 -186 -393l-6 -12q-72 -199 -72 -256q-2 -45 16 -68q18 -20 39 -18t39 0q18 -4 19 -19q0 -35 -131.5 -116.5t-221.5 -81.5q-70 0 -192 131q-123 131 -123 184z" />
<glyph unicode="8" horiz-adv-x="1067" d="M-55 375q-14 113 92 233q109 123 252 207q-10 43 -25 98l-22 88q-8 27 -19 72q-8 35 -8 51q0 4 4 33q76 150 258 229q182 80 338 80q72 0 191 -82q121 -82 122 -141q2 -100 -67 -239q-70 -136 -207 -224l-10 -4q100 -242 102 -293q8 -143 -186 -315q-197 -172 -387 -172 q-147 0 -281 127q-133 127 -147 252zM209 223q0 -55 27 -55q195 0 92 479q-115 -283 -119 -424zM737 1032q12 -41 45 -114q45 88 76 198q29 102 33 168q1 62 -19 70h-4q-51 0 -106 -96.5t-25 -225.5z" />
<glyph unicode="9" horiz-adv-x="1015" d="M10 954q55 150 172 273q119 125 228 182q113 59 182 59q100 0 299 -100q199 -102 209 -166q23 -158 -88 -457q-111 -301 -264.5 -540.5t-245.5 -239.5q-14 0 -123 55.5t-203 122.5q-96 68 -72 97q8 12 35 18q23 6 51 18q27 12 86.5 80t129.5 185q-135 33 -279 151 q-142 117 -111 256zM426 795q4 -90 61 -99q31 47 101 197q55 113 78 203q25 96 24 147q0 54 -20 62h-4q-31 12 -105 -111t-104 -221q-35 -88 -31 -178z" />
<glyph unicode=":" horiz-adv-x="495" d="M57 168q-41 59 25 219q10 29 18 41q12 16 25 29q14 14 43 12q31 -4 68 -20q14 -6 92 -43q92 -45 114 -58q39 -23 47 -37q4 -8 5 -12v-10q0 -6 -2 -13l-3 -14q0 -4 -6 -20l-8 -25q-12 -41 -67 -129t-82 -88h-17h-18h-21q-12 0 -24 4l-25 10q-20 8 -28 15q-25 18 -31 22 q-12 8 -33 29l-35 39q-18 20 -37 49zM162 664q-41 59 24 219q16 37 19 41q6 12 22 28q14 14 43 13q31 -4 68 -21q14 -6 92 -43q92 -45 115 -57q39 -23 47 -37q4 -8 4 -12v-11q0 -6 -2 -12l-2 -14q0 -4 -6 -21q-2 -4 -3 -9t-3 -9t-2 -6q-12 -41 -68 -129q-55 -88 -82 -88h-14 h-19h-20q-12 0 -25 4l-24 10q-20 8 -29 14q-25 18 -31 23q-12 8 -33 28l-34 39q-18 20 -37 50z" />
<glyph unicode=";" horiz-adv-x="454" d="M0 -426q-4 10 12 29q2 2 39 53q23 31 39 68h-4q27 61 27 116q0 53 -13 74q-10 18 -41 49q-27 27 -30 35q-43 63 34 270q27 70 72 105q41 31 58 -29q12 -45 129 -94q119 -49 120 -57q4 -8 4 -13v-10q0 -6 -2 -12l-2 -15q0 -4 -6 -20q-2 -4 -3 -9t-3 -9.5t-2 -6.5 q-14 -51 -45 -123q-35 -80 -111 -194q-74 -113 -163 -180q-25 -16 -52 -27q-23 -8 -39 -8t-18 8zM131 664q-41 59 25 219q10 29 18 41q12 16 25 28q14 14 43 13q31 -4 67 -21q14 -6 92 -43q92 -45 115 -57q39 -23 47 -37q4 -8 4 -12v-11q0 -6 -2 -12l-2 -14q0 -4 -6 -21 q-2 -4 -3 -9t-3 -9t-2 -6q-12 -41 -68 -129q-55 -88 -82 -88h-16h-18h-21q-12 0 -25 4l-24 10q-20 8 -29 14q-25 18 -30 23q-12 8 -33 28l-35 39q-18 20 -37 50z" />
<glyph unicode="=" horiz-adv-x="1060" d="M16 500q-4 43 25 67q53 47 113 68q61 23 90 18q494 -31 528 -24q37 6 59.5 22.5t30.5 16.5l-8 -4q18 0 34.5 -25t18.5 -51q2 -55 -55 -105q-57 -47 -104 -51q-66 -4 -291 27q-203 27 -260 33q-49 2 -82 -7q-33 -10 -49 -18q-16 -10 -19 -10q-27 0 -31 43zM73.5 772 q-1.5 51 24.5 76q51 49 114.5 73.5t86.5 22.5q596 -37 629 -33q37 6 59.5 35t30.5 29l-4 -10q20 0 35 -33q16 -35 18 -64q2 -55 -55 -104q-57 -47 -105 -51q-68 -4 -344 26q-82 8 -155.5 16.5t-111.5 12.5t-42 4q-45 2 -82 -10q-35 -12 -49 -26.5t-19 -14.5q-29 0 -30.5 51z " />
<glyph unicode="?" horiz-adv-x="690" d="M41 166q-20 27 10 104q29 72 84 160q23 41 47 41q27 0 66 -49q33 -39 123 -70q88 -31 94 -43q4 -8 4 -12v-10q0 -6 -2 -13l-2 -14q0 -6 -6 -20q-2 -4 -3 -9.5t-3 -9.5t-2 -6q-12 -39 -68 -129q-55 -88 -82 -88h2q-45 0 -125 43t-137 125zM174 506q-18 37 0 108 q51 184 84 230q35 47 74 16q66 -53 157 47q92 98 148 232q55 131 31 161q-57 51 -138 7q-78 -45 -155 -148q-76 -100 -94 -180q-10 -43 -37 -23q-20 14 -27 56q-18 111 41 254q57 139 133 186q84 53 283 -14q198 -68 276 -160l-8 -6q29 -35 47.5 -145.5t5.5 -149.5 q-23 -66 -69.5 -131.5t-110.5 -118.5q-66 -55 -100 -80q-10 -6 -34 -23.5t-34 -23.5q-29 -20 -57 -2q-31 20 -68 35q-39 14 -80 24q-39 8 -94 -24q-53 -33 -112 -117q-41 -53 -62 -10z" />
<glyph unicode="@" horiz-adv-x="2113" d="M29 176q-20 63 96 467q117 401 170 483q53 78 307 203t356 129l3 -4q154 4 448.5 -106.5t532.5 -243.5q233 -133 233 -184q0 -111 -110.5 -338.5t-266.5 -420t-264 -192.5q-76 0 -203 63.5t-223 166.5q-49 55 -66 86q-61 -76 -129 -135q-66 -57 -100 -58 q-102 0 -202.5 88t-100.5 154q0 113 49 239q51 131 113 220q68 96 125 153q61 61 92 62q102 0 207 -29q100 -29 141 -80l6 -6q43 98 64 98q39 0 112 -18q78 -20 109 -39q16 -10 24.5 -26.5t8.5 -33.5v-12q0 -37 -39 -162l-37 -127q-100 -340 -99 -411q4 -47 37 -47 q72 0 156 145q82 143 141 336q59 197 84 360q6 33 -84 80q-90 45 -221 86q-119 37 -280 70q-154 33 -261 35q-117 4 -165 -21q-86 -55 -228 -313q-137 -250 -235 -502q-96 -244 -74 -274q31 -43 250 -86t368 -37q57 6 80 8q45 6 56 6q6 0 32 -10q16 -16 -98 -152 q-113 -135 -147 -135q-96 0 -269 72q-168 70 -319 184q-150 113 -180 209zM918 340q1 -57 30 -57l4 4q45 0 187 381q0 4 10 37q6 20 18 67q12 43 9 78q-4 31 -25 31q-66 0 -147 -203q-90 -211 -86 -338z" />
<glyph unicode="A" horiz-adv-x="1247" d="M-76 466q0 57 152 179q154 123 215 123q31 0 39 -2q117 188 202 303q-23 20 -47 21q-29 -4 -43 -33q-16 -31 -20 -31q-20 0 -26 37q-1 6 -2 14q0 37 26 101q31 78 106 159q78 68 183 136q100 63 127 63q31 0 79 -61q47 -59 101 -179q55 -123 96 -264q46 -154 72 -344 q22 -155 21 -316q0 -36 -1 -73l-20 -8q6 -16 -2 -51q-10 -39 -27 -56q-39 -39 -170 -116q-129 -78 -143 -80h-4q-36 0 -41 39q-14 209 -31 350q-121 8 -346 37q-16 -51 -31 -101q-7 -30 -7 -50.5t7 -31.5q16 -23 36.5 -37t18.5 -30q-10 -39 -82 -105q-73 -67 -135 -67h-2 q-39 0 -127 88q-81 81 -81 124q0 4 1 7q10 43 117 233q-45 0 -74 -4q-37 -4 -61 -51q-25 -49 -33 -49q-18 0 -30 45q-13 48 -13 81zM524 717l6 -4q14 -4 197 -68q-29 127 -61 195q-14 33 -43 86q-54 -94 -99 -209z" />
<glyph unicode="B" horiz-adv-x="1351" d="M-16 1200q-2 57 176 197q180 139 239 139q137 0 375 -73.5t418 -166.5q182 -92 182 -143q0 -104 -174 -285q-2 -4 -16 -18q94 -27 166 -86l4 -8q18 -18 18 -61v-9q-2 -47 -37 -119q-33 -72 -80 -147q-49 -80 -112 -154q-68 -76 -137 -137q-72 -61 -154 -98t-160 -37h-4 q-6 -2 -24 -2q-78 0 -203 65.5t-219 171.5t-92 203q0 80 22 141q45 119 215 517q-96 -33 -154 -62q-44 -26 -44 -83q0 -7 1 -15q2 -27 -10 -39t-33 2q-14 10 -88 147q-72 133 -75 160zM633 211q15 -31 31 -37q8 -3 14 -3t10 3q45 27 111 129q63 99 88 197l4 -6q13 56 13 90 q0 25 -7 37q-24 38 -118 38q-22 0 -48 -2q-10 0 -12 2q-72 -264 -86 -340q-8 -39 -8 -66t8 -42zM741 766q35 16 138 43q59 109 88 223q14 58 14.5 99t-14.5 67l2 -4q-7 8 -45 8q-19 0 -47 -2q-14 -66 -109 -350q-4 -4 -27 -84z" />
<glyph unicode="C" horiz-adv-x="1120" d="M102 772q76 195 168 350q98 164 193 271q97 110 150 110h1q125 0 230 -20q113 -23 182 -49q72 -29 129 -62q55 -33 82 -55q25 -23 31 -31q14 -25 14 -55q0 -51 -38 -117q-62 -106 -154 -178q-74 -57 -115 -57q-11 0 -19 4q-6 6 -6 16q0 12 8 31q12 29 19 41q10 18 18 43 l17 43q29 88 35 143q2 19 2 36q0 35 -9 56q-12 33 -39 35h-5q-28 0 -66 -40q-42 -44 -94 -136q-150 -252 -213 -516q-19 -97 -19 -165q0 -145 88 -155q146 0 375 260l-12 -2q35 39 52 39q4 0 7 -2q6 -4 6 -15q0 -19 -18 -56q-59 -115 -119 -193q-61 -80 -172 -184 q-49 -47 -147 -105q-96 -57 -160 -57q-57 0 -172 66q-111 63 -211 172q-96 107 -96 198q0 138 77 336z" />
<glyph unicode="D" horiz-adv-x="1320" d="M-16 1200q-4 59 180 197q186 139 246 139q139 0 401 -68q264 -68 469 -161q209 -95 209 -154l-6 -6q0 -18 -10 -53q-51 -178 -172 -442.5t-240 -424.5q-45 -61 -178 -147t-197 -86q-133 0 -338 160q-207 160 -203 280q0 80 23 141q8 25 49 113l94 209l86 193 q-94 -29 -164 -62q-45 -25 -45 -88v-10q4 -29 -8 -39q-12 -12 -33 2q-14 10 -88 147q-72 133 -75 160zM643 322q-12 -61 -12 -96q0 -46 21 -46h3q3 0 7 4h-5q100 76 261 445q158 367 161 497q0 45 -12 74q-5 10 -46.5 10t-119.5 -10q-250 -823 -258 -878z" />
<glyph unicode="E" horiz-adv-x="1161" d="M27 432q2 92 22 141q37 96 209 623q-4 0 -8 2t-8 6l-17 6l-20 4h-19q-10 0 -20 -6t-19 -20q0 -2 -3 -9.5t-5 -13.5q-2 -4 -5 -12t-5 -12q-2 -8 -12 -8q-14 0 -37 34q-25 36 -25 70q0 47 117 145q119 100 190 105h10q79 0 390 -55q326 -57 375 -58q35 0 53 31q20 35 29 61 q10 31 22 31q20 0 43 -55.5t25 -91.5v-6q0 -78 -160 -226q-166 -154 -242 -153q-58 0 -205 59l-30 -70l-15 -45q-6 -16 -6 -18l-28 -96q40 -2 76 -3q81 0 145 13q17 4 30 4q24 -1 32 -13q3 -5 3 -12q0 -18 -24 -49q-104 -137 -209 -160q-17 -4 -37 -4q-33 0 -72 11 q-20 -80 -39 -160q-6 -28 -6 -50q0 -79 80 -79q55 0 166 53q109 51 221 178q34 37 56 37q6 0 10 -2q9 -5 9 -19q0 -18 -15 -51q-49 -102 -103 -167q-51 -66 -168 -172q-53 -51 -143 -103q-94 -55 -156 -55q-57 0 -166 65q-104 63 -198 172q-88 102 -88 195v8z" />
<glyph unicode="F" horiz-adv-x="958" d="M78 553l217 645q-12 4 -21 6q-4 0 -18 6t-20 7h-19q-12 0 -20 -7q-10 -6 -19 -20l-8 -25q-6 -14 -12 -24q-6 -8 -13 -8q-14 0 -36 34q-23 33 -25 68v2q0 47 116 145q118 100 191 105h5q74 0 397 -55q330 -57 374 -58q35 0 54 31q20 35 28 61q8 31 23 31q23 0 43 -55.5 t24 -91.5v-6q1 -78 -159 -226q-166 -154 -244 -153q-58 0 -203 57l-12 -14q-16 -53 -35 -105q-6 -16 -33 -104q46 -4 87 -4q74 0 134 12q17 4 30 4q24 -1 32 -13q3 -5 3 -12q0 -18 -24 -49q-111 -139 -210 -159q-19 -3 -39 -3q-35 0 -74 9q-57 -211 -57 -291v-9 q0 -39 16 -59q18 -20 38.5 -18t39.5 0q18 -2 18 -19q0 -33 -110 -116q-109 -82 -201 -82q-68 0 -191 133q-122 130 -122 183q0 85 55 247z" />
<glyph unicode="G" horiz-adv-x="1269" d="M25 440q2 139 71.5 325.5t153.5 336.5q88 154 178 256q92 104 145 104q119 0 234 -18q121 -20 188 -45q82 -31 135 -58q61 -31 89 -51q31 -23 34 -30q15 -26 15 -58q0 -48 -35 -110q-57 -103 -148 -174q-70 -56 -110 -56q-11 0 -19 4q-6 2 -6 13q0 10 6 28q2 4 4.5 11.5 t4.5 11.5t2 8q4 16 12 41l12 37q29 88 35 147q2 22 2 40q0 37 -8 59q-12 32 -37 36h-5q-28 0 -64 -38q-40 -41 -93 -132q-137 -244 -196 -503q-24 -104 -24 -173q0 -131 83 -143q6 -2 18 -2h5q14 41 26 79t22.5 67.5t18.5 55.5t14.5 44t10.5 31.5t8 21.5l2 8q6 18 -4 31 q-10 14 -10 23q0 16 63 73.5t98 57.5l-12 -11q51 0 160 -45q111 -47 123 -61q4 -6 8 -18q2 -6 2 -29q0 -25 -2 -37q0 -2 -3 -19.5t-5 -31.5l-13 -64l-16 -84l-20 -102q-14 -72 -19 -129q-2 -30 -2 -48t2 -24q4 -12 -6 -30q-10 -16 -76 -43q-70 -29 -104 -29q-39 0 -109 55 q-72 57 -108 123q-47 -68 -123 -123t-129 -55q-57 0 -172 65.5t-213 176.5q-94 105 -94 197v7z" />
<glyph unicode="H" horiz-adv-x="1456" d="M45 1065q4 150 37 219q16 35 160 102q145 68 194 68q84 0 244 -61.5t178 -87.5q18 -24 18 -68q0 -33 -10 -76q0 -10 -14 -55l-45 -152l-51 -172q51 29 92 37q33 8 98 12l131 392q6 18 -4 30q-10 14 -10 23q0 16 63.5 73.5t98.5 57.5q51 0 174 -51q125 -51 137 -68 q8 -14 12 -43q2 -12 2 -25q0 -18 -4 -36q-10 -53 -14 -72q-12 -49 -21 -74l-20 -65l-14 -49l-9 -21l-12 -10q-23 -68 -41 -131q-25 -86 -67 -250q-41 -154 -43 -215q0 -47 18 -68q18 -20 38.5 -18t39.5 0q18 -2 18 -18q-4 -37 -112 -117q-111 -80 -199 -80q-68 0 -190 133 q-123 133 -123 184q4 88 55 246q14 39 35 105q-69 6 -118 6q-29 0 -52 -2q-88 -324 -99 -369q-10 -55 -12 -106q-2 -53 -6 -74q-4 -25 -8 -29q-14 -20 -75.5 -57t-94.5 -37q-68 0 -191 133t-123 184q4 88 56 246l215 547q37 100 47 139q12 49 10 60q-4 14 -14 16q-5 2 -11 2 q-33 0 -75 -59q-49 -72 -104.5 -203t-116.5 -326q-10 -31 -21 -43q-12 -14 -24 -2q-10 10 -15 58q-9 118 -9 238q0 39 1 79z" />
<glyph unicode="I" horiz-adv-x="784" d="M51 1073q6 147 43 221q16 35 156 103q139 67 189 67h1q84 0 244 -61t180 -88l-4 -12q16 -23 16 -64q0 -33 -10 -78q-2 -6 -65 -209l-119 -393q-59 -201 -61 -260q0 -45 18 -68q18 -20 38.5 -18t39.5 0q18 -4 18 -18q-4 -37 -112 -117q-111 -80 -199 -80q-68 0 -191 133 q-123 131 -122 184q4 90 55 246l221 557q37 100 47 139q12 45 8 59.5t-14 16.5q-5 2 -10 2q-32 0 -78 -61q-51 -70 -111 -207q-57 -135 -116 -326q-10 -31 -21 -43q-12 -14 -24 -2q-10 12 -15 58q-5 93 -5 184q0 68 3 135z" />
<glyph unicode="J" horiz-adv-x="759" d="M-219 -213q0 16 6 22.5t16 6.5q8 0 31 6t43 18q90 55 184 320l332 952q37 100 47 139q12 49 11 60q-4 14 -19 16q-5 2 -11 2q-100 0 -296 -614q-14 -47 -37 -49h-1q-21 0 -24 61q-3 90 -3 168q0 303 44 399q16 35 156 103q139 67 190 67h1q84 0 243.5 -61t179.5 -88l3 -8 q18 -26 18 -69q0 -33 -10 -75q-6 -25 -166 -571q-160 -549 -162 -551q-20 -70 -131 -162q-115 -96 -242 -158q-133 -65 -213 -65h-2q-61 0 -124.5 45t-63.5 86z" />
<glyph unicode="K" horiz-adv-x="1511" d="M63 750q-4 101 -4 184q0 264 43 354q16 35 157.5 102.5t191.5 67.5q84 0 243.5 -61.5t177.5 -87.5q18 -24 18 -69q0 -32 -9 -75q-4 -10 -111 -368h6h6q203 371 265 460q104 148 166 148h6q39 -4 102 -19q63 -14 141 -42.5t123 -67.5q35 -31 35 -62q0 -11 -4 -22 q-116 -284 -438 -401l-2 -15q-31 -12 -43.5 0t8.5 39q49 66 73 141q23 74 23 122v7q-4 53 -25 68q-4 3 -9 3q-30 0 -97 -85q-78 -100 -156 -242q44 4 71 4t36 -4q45 -20 104 -133l113 -209q53 -98 90 -98t98 74q35 40 51 40q8 0 11 -11q2 -5 2 -13q0 -25 -19 -80 q-29 -82 -67 -151q-39 -72 -74 -98q-59 -53 -172 -107q-109 -51 -186 -51q-55 0 -111 108q-57 111 -109 275q-53 168 -67 194q-84 -154 -105 -438l-6 6q-2 -41 -10 -49q-14 -20 -75.5 -57t-94.5 -37q-68 0 -190 133q-123 131 -123 184q2 90 55 246l223 565q37 100 47 140 q12 49 11 59q-4 14 -15 16q-5 2 -11 2q-33 0 -77 -63q-53 -76 -110 -211q-59 -141 -117 -328q-8 -25 -23 -43q-12 -14 -24.5 -1.5t-12.5 57.5z" />
<glyph unicode="L" horiz-adv-x="1064" d="M-43 119q0 57 111 141t196 107q-76 150 -76 219q0 25 48 159l92 252l45 119l51 131q6 16 20 60q4 10 -6 16q-5 2 -11 2q-33 1 -77 -59q-51 -70 -106 -205q-59 -145 -115 -326q-10 -31 -20 -43q-12 -14 -25 -2q-10 10 -14 58q-5 93 -5 184q0 68 3 135q6 147 43 221 q16 35 155 103q139 67 190 67h1q84 0 243.5 -61.5t180.5 -87.5q16 -22 16 -63q0 -33 -10 -79q0 -4 -56 -163l-122 -363q-63 -180 -99 -287q232 -22 285 -22h4q33 0 47 26q14 25 25 54q8 25 18 24q20 0 39 -49q17 -45 21 -82l-5 -4q4 -72 -149.5 -233.5t-226.5 -161.5 q-80 0 -289 86t-273 86q-31 0 -49 -25q-16 -23 -26 -49q-10 -25 -21 -24q-20 0 -35 49q-18 55 -18 90z" />
<glyph unicode="M" horiz-adv-x="1806" d="M23 223q0 80 282 772q-34 29 -68 29q-20 0 -40 -10q-8 -18 -11 -45q-4 -35 -8 -49q-6 -18 -14 -19q-25 0 -58 62q-33 61 -36 98q-4 29 55 96q59 68 123 117q76 70 194 141q111 68 139 68h3q78 -12 186 -221q106 -209 184 -535q256 424 351 551v2q0 18 55 73.5t90 55.5 q53 0 238 -49q186 -49 194 -62q10 -16 12 -43q2 -12 2 -25q0 -18 -4 -36q-10 -53 -14 -72l-18 -73q-10 -41 -19 -66l-14 -49l-8 -21l-17 -4q-4 -16 -30 -129q-20 -88 -58 -264q-31 -150 -31 -213q0 -45 19 -67q18 -20 38.5 -18.5t39.5 -0.5q18 -4 18 -18q0 -35 -117 -117 q-115 -82 -204 -82q-70 0 -193 133q-121 131 -121 182q0 87 51 248q35 88 154 449h-18q-57 -100 -334 -643q4 -12 6 -37t6 -37q1 -12 1 -23q0 -51 -30 -71q-74 -49 -165 -92q-82 -37 -144 -64q-51 -20 -65 -25h-7q-33 0 -43 37q-84 471 -147 719q-76 -346 -86 -448v-11 q0 -32 10 -57q12 -27 31 -37q18 -8 35 -22q16 -12 16 -27q0 -35 -67.5 -102.5t-130.5 -67.5q-37 0 -125 88t-88 131z" />
<glyph unicode="N" horiz-adv-x="1396" d="M-10 1110q0 27 59 96q59 68 121 115q74 68 172 131q96 61 123 61q72 0 289 -251.5t387 -577.5q55 336 55 520q0 29 -14.5 51.5t-14.5 34.5q0 27 72 80q70 51 109 51q31 0 98 -20q72 -23 80 -33q5 -6 5 -24q0 -66 -69 -295q-85 -292 -202 -603l-19 -10q25 -61 59 -164 q8 -15 8 -32q0 -34 -34 -72q-39 -41 -162 -117q-125 -76 -141 -80h-5q-24 0 -42 39q-195 412 -471 764q-47 -326 -62 -461q-1 -10 -1 -19q0 -36 20 -60q24 -28 48.5 -43t24.5 -31q0 -35 -67.5 -102.5t-130.5 -67.5q-35 0 -123 88t-88 131q0 72 231 747l-67 70l-7 6l-6 6 l-6 6q-27 23 -55 33q-27 8 -37 -4q-10 -10 -16 -41l-11 -55q-6 -25 -14 -25q-25 0 -59 62q-33 61 -37 96z" />
<glyph unicode="O" horiz-adv-x="1218" d="M61 389q-5 30 -5 66q0 131 71 340q88 262 231 477q141 213 248 213q61 0 199 -39q80 -23 115.5 -44.5t27.5 -43.5l-4 -8q-14 -18 -18 -29q104 -18 227 -72q119 -51 141 -90q28 -55 28 -137q0 -106 -46 -258q-23 -86 -64 -178l-2 -6q-123 -256 -350 -418 q-229 -164 -405 -164q-106 0 -240 135q-131 135 -154 256zM612 301q9 -113 56 -113l-6 -2q51 0 137 185q88 188 133 420q35 174 35 286q0 117 -45 117q-31 0 -88 -76q-59 -78 -99 -184q-63 -168 -98 -344q-27 -137 -27 -236q0 -28 2 -53z" />
<glyph unicode="P" horiz-adv-x="1136" d="M-14 1223q-4 59 180 190q182 131 248 131l-13 -10q139 0 381 -74q246 -74 435 -166q190 -92 190 -143q0 -55 -68 -184q-70 -131 -147 -213q-45 -51 -182 -129q-131 -74 -289 -131q-43 -14 -55 6t16 43q125 96 219 344q66 175 66 265q0 37 -11 60q-6 9 -41 9q-24 0 -63 -4 q-8 -57 -37 -160q-23 -86 -49 -174q-20 -72 -25 -76q-6 -12 -32 -109q-23 -82 -56 -219q-30 -127 -30 -186q0 -47 16 -68q16 -18 37 -18q27 0 39 -2q18 -4 18 -19q-4 -35 -110 -114q-106 -80 -197 -80q-68 0 -190 129q-121 129 -121 180q0 89 51 246q33 94 235 571 q-115 -43 -165 -69q-46 -25 -46 -91v-8q2 -29 -8 -39t-32 4q-14 10 -89 148q-72 133 -75 160z" />
<glyph unicode="Q" horiz-adv-x="1210" d="M-12 -225q-4 55 94 147q100 94 180 127q-80 59 -149 154q-66 90 -82 168q-5 30 -5 66q0 131 70 339q88 262 232 477q141 213 250 213q61 0 198 -39q80 -23 116 -44t28 -44l-5 -8q-14 -18 -18 -28q104 -18 227 -72q119 -51 142 -90q27 -56 27 -138q0 -107 -46 -258 q-23 -86 -63 -178l-2 -2l-6 -4q-96 -195 -254 -338q-160 -145 -326 -209q416 -73 466 -73h3q33 0 47 24q14 23 25 53q8 27 20 27q18 0 37 -49q16 -45 20 -82q4 -74 -149 -256q-154 -184 -227 -184q-82 0 -356.5 131t-344.5 131q-39 0 -61.5 -47t-30.5 -47q-18 0 -37 49 q-16 45 -20 84zM575 281q8 -113 56 -113q51 0 137 184q88 189 133 420l-2 -2q31 153 31 262v25q-4 117 -45 117q-31 0 -88 -76q-59 -78 -99 -185q-63 -168 -98 -344q-27 -137 -27 -235q0 -28 2 -53z" />
<glyph unicode="R" horiz-adv-x="1474" d="M-16 1208q-2 57 186 193q190 135 254 135q137 0 377 -76q244 -76 430 -172q186 -94 186 -147.5t-57 -153.5q-57 -102 -141 -190q-39 -37 -119 -86q29 -43 67 -125q41 -86 74 -135.5t62 -49.5q39 0 98 72l-15 -6q35 40 51 40q8 0 11 -11q2 -5 2 -13q0 -25 -18 -80 q-29 -82 -68 -151.5t-72 -97.5q-59 -53 -172 -107q-109 -51 -186 -51q-63 0 -123 139q-57 139 -98 277q-41 139 -62 139h-4q-45 -182 -55 -246q-10 -59 -12 -110.5t-7 -73.5q-4 -25 -8 -29q-14 -20 -75.5 -57t-94.5 -37q-71 0 -193 133q-121 131 -120 182q0 87 51 248 q20 49 113 238q109 223 121 260q2 12 12 39q-96 -33 -148 -62q-46 -24 -46 -84q0 -7 1 -14q2 -27 -10 -39t-33 2q-16 12 -85.5 147.5t-73.5 159.5zM694 727q66 18 137 33q70 125 105 258q19 73 19 121q0 40 -13 63q-6 9 -39 9q-25 0 -65 -5q-30 -121 -50 -164v-2 q-16 -45 -94 -313z" />
<glyph unicode="S" horiz-adv-x="1093" d="M16 369q-3 19 -2 39q0 109 78 225q92 139 225 213q35 20 50 20q7 0 10 -4q10 -12 -15 -57q-53 -104 -81 -262q-21 -119 -21 -212q0 -29 2 -53q8 -110 49 -110q88 0 144 197q39 138 39 301q0 68 -7 141q-10 86 -32 170q-25 91 -37 147q-6 28 -6 49t6 35q53 121 235 197 q186 78 332 78q76 0 178 -64q106 -66 109 -137q0 -4 1 -9q0 -80 -71 -165q-74 -92 -174 -143l-8 -15q-41 -20 -55 -12t4 43q51 89 73 185q19 82 20 131q0 9 -1 16q-4 53 -17 53q-47 -4 -110 -82q-62 -75 -62 -139v-8q4 -88 82 -254q109 -246 125 -377q1 -6 1 -13 q0 -86 -97 -202q-106 -127 -260 -213q-156 -88 -279 -88q-141 0 -278 127q-134 125 -150 252z" />
<glyph unicode="T" horiz-adv-x="1282" d="M23 1214q0 57 129 164q131 106 206 111h10q83 0 455 -55q389 -57 437 -58q35 0 53 31q20 35 28 61q10 31 23 31q20 0 43 -55t25 -94l-11 -4q4 -78 -161.5 -231.5t-241.5 -153.5q-51 0 -164 36q-29 -92 -33 -98l-41 -131q-27 -92 -67 -246q-39 -150 -39 -215v-9 q0 -38 16 -58q18 -20 39 -18.5t39 -0.5q18 -4 18 -18q0 -35 -110 -117q-109 -82 -201 -82q-68 0 -190 133q-123 133 -123 185q2 88 55 245l201 600q-127 43 -191 43q-35 0 -53 -55t-30.5 -110.5t-32.5 -55.5q-23 0 -54 90q-34 95 -34 135z" />
<glyph unicode="U" horiz-adv-x="1552" d="M53 762q-4 86 -4 166t4 154q8 148 43 221q16 35 156 102q141 68 190 68q84 0 244 -61.5t180 -88.5q18 -26 18 -69q0 -32 -10 -74q-2 -6 -30 -105l-72 -246l-74 -258l-20 -71q-14 -49 -24.5 -86t-18.5 -80q-6 -34 -6 -61v-13q2 -31 18 -43q15 -15 31 -15q46 0 96 128 q72 172 311 905q6 18 -4 31q-10 14 -10 22q0 16 63.5 73.5t98.5 57.5q51 0 174 -51q125 -54 135 -68l-16 -6q10 -16 12 -43q4 -31 -2 -61q-10 -53 -14 -72l-19 -74q-10 -41 -18 -65q-10 -29 -19 -49l-6 -21q-39 -72 -223 -770l-6 -20l2 8q-4 -4 -6 -18q-2 -10 -6 -26.5 t-9 -25.5q-6 -12 -12 -18q-10 -6 -26 -6q-27 0 -68 20q-66 41 -117 62q-12 4 -37 6q-18 8 -26 8q-102 0 -191 -31q-96 -33 -160 -63q-68 -33 -126 -33q-66 0 -138 66q-74 59 -141 141q-68 82 -64 117q4 84 50 221q41 125 133 350q84 207 90 219q8 18 33 96q10 31 18 60 q6 23 6 35t-4 16q-2 4 -12 6q-6 2 -12 2q-33 0 -74 -57q-49 -66 -105 -201q-53 -129 -116 -323q-10 -31 -21 -43q-12 -14 -24 -2q-10 12 -15 57z" />
<glyph unicode="V" horiz-adv-x="1175" d="M-12 1055q4 31 69 96q72 72 136 115q90 74 190 141.5t123 67.5q35 0 84 -62q51 -66 102 -166q55 -111 96 -272q45 -174 60 -357q205 393 235 619q4 29 -14 51q-18 25 -14 35q6 29 88 80t119 51q29 0 102 -31q76 -31 78 -43l-2 -10q3 -6 3 -17q0 -39 -40 -143 q-55 -137 -199 -381q-152 -254 -352 -516v-4q0 -66 -39 -104q-39 -41 -197 -129q-158 -90 -172 -90h-4q-35 0 -39 37q-23 436 -75 663q-55 231 -117 303q-25 23 -51 33q-27 8 -39 -4q-10 -8 -21 -41l-16 -55q-6 -25 -19 -25q-23 -1 -51 61q-24 54 -24 88v9z" />
<glyph unicode="W" horiz-adv-x="1855" d="M-16 1055q4 29 73 96q74 72 142 115q90 70 200 141q104 68 127 68q43 0 105 -86q63 -88 121 -265q59 -182 77 -393q125 287 162 508q6 29 -2 51q-10 25 -6 35q8 27 92 80q82 51 121 51q51 0 113 -24q12 0 18 -7q82 -90 148 -301q66 -215 71 -497q162 352 209 614 q6 29 -8 51q-16 25 -12 35q10 29 92 80t121 51q27 0 98 -31q72 -31 78 -43l-10 -20q2 -5 2 -12q0 -20 -11 -60q-16 -61 -57 -153q-49 -115 -106 -219q-66 -121 -172.5 -283t-239.5 -326v-6q-6 -68 -45 -102q-45 -41 -205 -129q-164 -90 -178 -90h-4q-35 0 -35 36 q0 426 -45 682q-84 -174 -191 -344q-2 -31 -6 -51q-6 -66 -43 -102q-45 -41 -211 -129q-170 -90 -184 -90q-5 -1 -9 -1q-30 0 -30 38v37q0 397 -41 626q-43 233 -100 303q-20 23 -49 33q-27 8 -39 -4q-12 -8 -25 -41q-4 -12 -11 -31.5t-9 -23.5q-8 -25 -19 -25q-23 0 -47 61 q-21 49 -21 84q0 7 1 13z" />
<glyph unicode="X" horiz-adv-x="1218" d="M-70 133q-1 3 -1 8q0 14 8 41q8 33 40 105q29 66 78 145q49 82 131 178q90 104 193 197q-113 324 -143 381q-2 4 -7 12q-2 6 -6 14.5t-8 12.5l-12 12q-8 8 -15 12l-18 13q-12 8 -20 10q-31 4 -31 18q4 35 112 105q111 71 170 71h2q47 0 154 -30.5t154 -55.5 q20 -12 30 -59q41 -141 146 -430q37 59 55 125q16 61 27 147q8 78 12 95q2 27 -6 51q-8 25 -6 37q12 29 106 80t131 51q27 0 99 -41t73 -62q0 -2 1 -7q0 -12 -5 -38q-6 -33 -30.5 -98.5t-67.5 -135t-129 -165.5q-92 -102 -199 -189q125 -350 154 -417q18 -52 41 -68l-2 -16 q10 -8 24 -13q10 -2 29 -2q12 0 18.5 -6t4.5 -20q0 -35 -132 -129q-131 -98 -245 -99q-55 0 -160 93q-106 94 -121 165q-4 25 -119 381q-35 -61 -49 -135q-14 -66 -20 -145q-6 -70 -13 -92q-10 -27 13 -56t16 -39q-18 -33 -122.5 -100.5t-170.5 -67.5q-29 0 -94.5 63.5 t-69.5 92.5z" />
<glyph unicode="Y" horiz-adv-x="1124" d="M16 1255q0 33 104.5 119t166.5 86q43 0 129 -30q94 -35 139 -58q20 -8 37 -59q0 -2 15.5 -57.5t52 -186.5t77.5 -281q162 266 197 459q2 27 -12 51q-16 25 -13 35q8 27 92 80q82 51 121 51q31 0 109 -41q76 -39 86 -61q1 -2 1 -5q0 -28 -58 -132q-61 -113 -197 -297 q-133 -182 -283 -332q-59 -226 -59 -289l-2 -10q0 -47 18 -68q18 -20 39 -18t39 0t19 -18q0 -33 -111 -117q-109 -82 -199 -82q-70 0 -192 133q-121 131 -121 182q0 87 51 248q0 2 3 11.5t8.5 23.5t11.5 31q-6 20 -37 159q-31 143 -55 226q-27 90 -58 139l-4 8q-6 8 -6 12 q0 2 -4 10.5t-6 10.5l-4 4q-2 4 -5 6q-8 8 -12 10q-8 4 -12 9q-8 8 -14 10l-19 6q-33 2 -33 22z" />
<glyph unicode="Z" horiz-adv-x="1204" d="M-145 18q-1 6 -1 12q0 22 17 44q98 143 264 336q167 196 226 196h1q27 0 37 -2l199 189q139 129 170 159q-412 51 -455 52q-35 0 -55 -25q-20 -23 -33 -51q-12 -27 -24 -27q-20 0 -39 53q-23 64 -23 97q0 76 168 239q174 170 244 170q109 0 387.5 -55t288.5 -55 q47 0 135 59q4 4 6 8q4 8 6 10q27 19 43 19v-6q31 0 37 -29q1 -7 1 -13q0 -22 -15 -42q-10 -10 -27 -31v-2q-106 -135 -235 -260q-129 -127 -174 -135q-2 -2 -23 -2q-113 -123 -358 -365q351 -67 400 -67h1q33 0 51 30q20 35 29 62q10 31 22 30q20 0 43 -55q25 -60 25 -97 q0 -80 -174 -274q-178 -198 -260 -198q-104 0 -362.5 71.5t-264.5 71.5q-53 0 -143 -63q-10 -10 -56 -62v-2q-29 -18 -43 -18q-31 0 -36 28z" />
<glyph unicode="\" horiz-adv-x="681" d="M-39 1507q-4 43 37 72v2q72 45 80 -31q10 -57 289 -876q281 -821 282 -891q10 -41 -24 -62q-76 -41 -86 50q-2 66 -287 886q-279 807 -291 850z" />
<glyph unicode="_" horiz-adv-x="1067" d="M-39 -35q-2 51 25 76q51 49 139 86t111 35q63 -4 348 -49q289 -47 356 -35q37 6 59.5 34.5t30.5 28.5l-6 -8q20 0 35 -33q16 -35 18 -63q4 -57 -61 -117q-63 -57 -107 -57q-121 0 -413 59q-289 57 -353 55q-51 -4 -84 -18q-35 -16 -49 -31q-14 -14 -18 -14q-29 0 -31 51z " />
<glyph unicode="`" horiz-adv-x="444" d="M14 1745q2 27 74 63.5t98 28.5q96 -29 170 -74q74 -46 74 -75l-2 8q0 -49 -39 -203q-41 -158 -37 -227q0 -20 12.5 -75.5t6.5 -70.5q-18 -29 -68 -28q-18 0 -94 53q-72 51 -94 92l-27 86q-25 78 -49 207q-25 125 -25 215z" />
<glyph unicode="a" d="M-4 272q0 125 53 268.5t123 244t139 169.5q68 68 103 68q117 0 229 -33q119 -35 164 -88l6 -6q53 109 74 109q45 0 125 -21q82 -20 123 -43q16 -8 26 -29q7 -13 7 -25q0 -5 -1 -9v-15l-8 2q0 -45 -57 -237q-70 -207 -70 -312q0 -45 19 -67q18 -20 41 -21q29 0 41 -2 q18 -4 18 -20q0 -41 -98 -123q-96 -82 -203 -82q-59 0 -141 74q-84 76 -121 141q-68 -86 -143.5 -149.5t-112.5 -63.5q-115 0 -225.5 98.5t-110.5 171.5zM440 305v-8q0 -74 35 -74l6 2q20 0 80 127q57 127 123 301q6 14 12 41q2 8 19 78q10 47 10 77v9q-4 35 -27 35 q-68 0 -159 -213q-96 -225 -99 -375z" />
<glyph unicode="b" horiz-adv-x="1140" d="M-4 258q4 102 55 252q166 506 228 664q9 38 9 58q0 15 -5 21q-14 18 -33 29q-23 12 -23 35q0 29 94.5 86t149.5 57q41 0 111 -24q74 -25 118 -52q18 -8 27 -26q8 -16 8 -33l-2 -16q-4 -45 -63 -240q-41 -129 -90 -264q72 88 141 153q71 66 108 66l-6 -6q115 0 221 -74 q109 -74 109 -137q0 -131 -80 -328q-82 -203 -180 -342q-100 -143 -160 -143q-215 0 -313 86l-37 -29l-37 -28q-14 -10 -32.5 -18.5t-43.5 -8.5q-70 0 -172 104q-102 106 -102 158zM434 231q-1 -14 -1 -24q0 -45 19 -45h1q53 0 110 112q62 120 103 265v-4q14 55 24 98 q14 63 17 82q4 22 4 40q0 12 -2 21q-4 23 -19 23q-20 0 -57 -39q-39 -41 -86 -137q-49 -98 -80 -224q-2 -8 -4 -19t-7 -33.5t-10 -41.5q-4 -39 -12 -74z" />
<glyph unicode="c" horiz-adv-x="866" d="M8 299v13q0 128 76 292q80 178 184 299q104 123 172 123q102 0 236 -35q41 109 80 127q4 2 11 2q27 0 109 -25q102 -31 117 -51v-4q6 -9 6 -17q0 -10 -10 -19l-2 -3q-2 -2 -5 -4t-8 -6t-9 -8q-23 -18 -62 -61q-45 -47 -80 -95q-37 -47 -82 -129q-41 -74 -69 -155 q-14 -51 -31 -51q-41 0 -41 114.5t31 243.5q-61 -88 -111 -238q-49 -147 -49 -268t72 -121q43 0 98 31q57 33 166 137q31 31 47 18.5t-2 -42.5q-92 -166 -229.5 -266.5t-239.5 -100.5q-109 0 -240 98t-135 201z" />
<glyph unicode="d" horiz-adv-x="1210" d="M0 268q0 125 53 268.5t123 243.5q70 102 139 170q68 68 103 68q98 0 203 -25q106 -25 163 -67q84 274 86 282q8 33 -6 52q-16 18 -37 30q-20 12 -20 29q0 33 98.5 88t153.5 55q76 0 227 -80q35 -19 35 -59q0 -9 -2 -20l-10 -7q-2 -10 -8.5 -31.5t-8.5 -31.5 q-10 -37 -24.5 -86t-24.5 -86l-82 -252q-61 -186 -92 -307t-31 -191q0 -45 19 -67q18 -20 41 -21q29 0 41 -2q18 -4 18 -20q0 -39 -113 -121q-115 -84 -204 -84q-55 0 -135 67.5t-121 139.5q-63 -82 -137 -143.5t-111 -61.5q-115 0 -225.5 98.5t-110.5 171.5zM438 299v-8 q0 -74 35 -74l6 2q20 0 80 127q59 125 123 301q6 14 12 41q2 8 19 78q10 47 10 77v9q-4 35 -27 35q-68 0 -159 -213q-94 -223 -99 -375z" />
<glyph unicode="e" horiz-adv-x="923" d="M-2 297v6q0 125 78 299q82 180 186 299q106 123 178 123q174 0 346 -80t179 -172q2 -88 -129 -211q-131 -121 -308 -143q-25 -2 -30.5 10t12.5 27q162 143 215 338q14 53 14 83q0 32 -16 39q-2 2 -6 3q-51 0 -135 -170q-109 -219 -119 -392v-12q0 -135 92 -135 q84 0 289 178l-2 -6q31 29 47 12q14 -14 -6 -45q-113 -176 -252 -264q-139 -90 -258 -90q-106 0 -240 102q-131 100 -135 201z" />
<glyph unicode="f" horiz-adv-x="929" d="M-123 -266q4 78 62 276q39 127 108 387q78 291 135 445q-61 4 -73 4q-25 0 -80 -17q-35 -12 -35 15q0 41 67 86q66 45 168 63l45 135l37 111l15 45q39 100 231 178q188 76 336 76q78 0 184.5 -63.5t106.5 -135.5q0 -78 -111 -174q-108 -93 -237 -159l-19 -17 q-27 -14 -45 -14t-20 12t10 35q102 166 158 293q32 75 32 107q0 22 -16 22q-94 0 -289 -514q51 -8 99 -8t92 8q16 4 24 -2t6 -15q-2 -33 -71 -86q-66 -51 -101 -57q-4 -1 -10 -1q-26 0 -88 13q-53 -98 -154 -524q-93 -395 -93 -445q0 -4 1 -6q-2 -15 -2 -28q0 -25 8 -41 q12 -23 31 -27q16 -2 35 -10q16 -6 16 -25q0 -41 -100 -122.5t-190 -81.5q-72 0 -173 104q-100 102 -100 158z" />
<glyph unicode="g" horiz-adv-x="1103" d="M0 334q0 172 82 338q82 168 174 260t139 92q121 0 232 -33q115 -35 159 -88q0 -4 2 -6q49 109 72 109q51 0 127 -21q80 -23 123 -43l-6 -8q18 -8 26 -26q7 -15 7 -28v-6v-16q0 -39 -129 -510t-154 -541q-39 -111 -199 -217q-158 -106 -299 -106q-76 0 -204.5 104.5 t-128.5 208.5q0 76 61 152q61 78 156 135q-90 33 -166 115q-74 80 -74 135zM233 -285q-2 -19 -2 -33q0 -51 27 -51h2q59 0 146 185q88 190 169 422h-10q-131 -156 -215 -181q-104 -180 -117 -342zM442 348q4 -74 39 -74q43 0 178 363q6 14 13 41q2 8 18 78q10 47 10 80v10 q-3 37 -26 37l2 -2q-66 0 -150 -195q-84 -200 -84 -332v-6z" />
<glyph unicode="h" horiz-adv-x="1193" d="M6 258q0 80 49 227q49 164 78 265l88 307q41 135 43 147q3 11 3 21q0 30 -27 51q-37 27 -37 43q0 29 92 86q90 57 147 57q45 0 127 -26q88 -29 131 -52q18 -8 27 -26q10 -18 6 -35v-14q0 -33 -59 -240l-88 -287q70 104 162 174q90 70 159 70q43 0 117 -27q78 -29 123 -55 q16 -8 27 -29q10 -18 6 -34v-15l4 -2q0 -45 -58 -237q-69 -220 -69 -309q0 -48 18 -70q18 -20 41 -21q29 0 41 -2q18 -4 19 -20q0 -41 -99 -123q-96 -82 -203 -82q-70 0 -174 104.5t-104 157.5q0 104 57 252q35 104 92 252q4 16 -2 22.5t-14 4.5q-16 0 -59 -43t-99 -142 q-53 -94 -75 -213l-7 -53q-2 -2 -2 -12q-22 -169 -22 -223q0 -25 -70 -68q-72 -43 -110 -43q-70 0 -174.5 104.5t-104.5 157.5z" />
<glyph unicode="i" horiz-adv-x="663" d="M14 258q0 92 58 252q45 129 94 252q7 21 7 35q0 20 -13 30q-20 16 -49 19q-27 2 -27 18q0 29 94 92q96 66 154 66q43 0 117 -27q80 -29 126 -55q16 -8 27 -29q8 -16 8 -32l-2 -17l-2 4q0 -31 -59 -237q-4 -14 -19 -64q-16 -55 -24 -85.5t-19 -80.5q-8 -43 -8 -86 q0 -47 19 -67q18 -20 41 -21q29 0 41 -2q18 -2 18 -20q0 -39 -98 -123q-96 -82 -205 -82q-70 0 -174.5 104.5t-104.5 155.5zM285 1249q-2 14 -2 32q0 67 36 185q47 152 48 250q0 58 6 70q4 8 24 8q10 0 23 -2q115 -14 237 -78q121 -61 121 -125q0 -45 -24 -98 q-23 -49 -68 -119q-37 -59 -63 -115q-12 -26 -12 -44q0 -32 36 -42l4 -2q21 -8 21 -21q0 -14 -23 -34q-70 -47 -166 -47q-49 0 -120.5 67.5t-77.5 114.5z" />
<glyph unicode="j" horiz-adv-x="864" d="M-262 -203q0 86 102 226q102 137 203 190q41 23 57 10q18 -12 0 -45q-35 -59 -61 -131q-33 -86 -47 -143q-20 -82 -29 -131q-6 -49 -6 -82v-16q2 -37 18 -37q45 0 107 110q61 109 117 275q59 176 102 323q49 174 80 285q33 127 37 129q7 22 7 37q0 19 -11 28 q-18 14 -47 18.5t-29 18.5q0 27 96 92.5t152 65.5q45 0 127 -27q88 -28 131 -51l-8 -6q35 -18 35 -73q0 -40 -19 -101q-16 -43 -36.5 -129t-31.5 -111l-77 -282l-80 -297q-33 -123 -37 -136q-37 -106 -215 -215q-178 -108 -305 -108h-2q-76 0 -203 104t-127 209zM565 1249 q-1 11 -1 23q0 69 38 194q47 152 47 252q0 59 8 70q7 8 27 8q10 0 23 -2q117 -14 239 -78q121 -61 121 -125q0 -47 -25 -98q-27 -55 -67 -121q-41 -63 -64 -112q-10 -25 -10 -43q0 -34 37 -43l-8 -5q22 -7 22 -21t-22 -34q-66 -47 -166 -47q-47 0 -119 70q-74 72 -80 112z " />
<glyph unicode="k" horiz-adv-x="1214" d="M2 260q0 70 47 227q39 123 78 265l88 307q37 133 43 147q3 11 3 20q0 30 -28 52q-37 29 -36 43q0 29 92 84t147 55q45 0 127 -26q90 -29 129 -52q18 -8 27 -26q8 -16 8 -33l-2 -16q0 -47 -57 -240l-88 -287q70 104 161 174q90 70 160 70q41 0 131 -33q88 -33 144 -61 q49 -25 48 -64q0 -6 -1 -12v-10q-10 -41 -99 -127q-92 -88 -198 -160q0 -2 22 -49l29 -62l29 -57q14 -29 30 -57q12 -20 31 -43q20 -23 33 -31q14 -8 37 -8q18 0 34 -4q12 -4 13 -19q0 -27 -133 -129q-137 -104 -209 -104q-55 0 -123 67q-66 66 -125 215q-18 47 -25 123 q-2 20 -2 37q0 48 13 74q25 33 84 100l77 90q29 31 39 50q16 37 -6 47t-49 -8.5t-59.5 -49t-94.5 -133.5q-57 -98 -79 -213q-4 -8 -7 -24q-2 -10 -2 -25v-12h-2q-20 -145 -20 -226q0 -20 -70 -63q-72 -43 -110 -43q-70 0 -174.5 104.5t-104.5 155.5z" />
<glyph unicode="l" horiz-adv-x="649" d="M2 258q0 98 51 252l76 252l84 282q33 111 41 134q9 38 9 58q0 15 -5 21q-12 16 -34.5 28.5t-22.5 35.5q0 29 92 84t147 55q45 0 127 -26q90 -29 129 -52q18 -8 26 -26q7 -15 7 -28v-5v-16l-2 -4q0 -47 -57 -240l-60 -193l-67 -223q-23 -78 -43 -178q-20 -96 -21 -156 q0 -47 19 -67q18 -20 41 -21q29 0 41 -2q18 -2 18 -20q0 -39 -113 -121q-115 -84 -204 -84q-70 0 -174.5 104.5t-104.5 155.5z" />
<glyph unicode="m" horiz-adv-x="1794" d="M4 260q0 92 57 252q57 164 93 252q7 22 7 37q0 19 -11 28q-18 14 -48 19q-27 2 -26 18q0 29 94 92q96 66 154 66q41 0 118 -27q82 -29 125 -51q18 -10 29 -28q10 -20 10 -33l-2 -17q0 -31 -14 -86h4q70 104 162 174q90 70 159 70q43 0 117 -27q80 -29 127 -55 q16 -8 27 -29q8 -18 6 -32v-17q0 -31 -14 -86h4q70 104 161 174q90 70 160 70q43 0 117 -27q80 -29 127 -55q16 -8 27 -29q8 -16 8 -32l-2 -17l-15 8q0 -31 -59 -237q-4 -14 -18 -64q-16 -55 -24.5 -85.5t-18.5 -79.5q-8 -43 -9 -87q0 -45 19 -67q18 -20 41 -21q29 0 41 -2 q18 -4 18 -20q0 -41 -98 -123q-96 -82 -205 -82q-70 0 -174 104.5t-104 155.5q0 92 57 252l94 252q4 16 -2 22.5t-14 4.5q-8 0 -33 -18.5t-57 -57.5q-31 -37 -64 -92q-31 -53 -55 -129q-23 -72 -33 -160h-2q-23 -176 -23 -227q0 -18 -69.5 -63.5t-106.5 -45.5 q-70 0 -174 104.5t-104 155.5q0 92 57 252q2 2 6 12q4 12 6 16.5t7 16.5v-2q80 209 79 211q4 16 -2 22.5t-14 4.5q-16 0 -59 -43t-99 -142q-53 -94 -75 -213q0 -14 -2 -26q-2 -16 -7 -27v-12h-2q-20 -145 -20 -226q0 -20 -70 -63t-110 -43q-70 0 -174.5 104.5t-104.5 155.5z " />
<glyph unicode="n" horiz-adv-x="1206" d="M2 260q0 92 57 252q59 164 93 252q7 21 7 36q0 20 -12 29q-18 14 -47 19q-27 2 -26 18q0 29 94 92q96 66 154 66q41 0 118 -27q82 -29 125 -51q18 -10 29 -28q10 -20 10 -35l-2 -15q0 -31 -14 -86h4q74 111 162 176q92 68 161 68q43 0 117 -27q80 -29 127 -55 q16 -8 27 -29q7 -13 7 -25q0 -5 -1 -9v-15h-14q0 -31 -60 -237q-4 -14 -18 -64q-14 -55 -24.5 -85.5t-18.5 -80.5q-8 -43 -8 -86q0 -47 18 -67t41 -21q29 0 41 -2q18 -2 18 -20q0 -39 -98 -123q-96 -82 -205 -82q-70 0 -174 104.5t-104 157.5q0 92 57 252l33 86l39 104 l22 64q4 16 0 22.5t-12 4.5q-16 0 -59 -43t-99 -142q-53 -94 -75 -213q0 -14 -3 -26q-2 -16 -6 -27v-12h-2q-20 -145 -20 -226q0 -20 -70 -63q-72 -43 -110 -43q-70 0 -174.5 104.5t-104.5 157.5z" />
<glyph unicode="o" horiz-adv-x="972" d="M23 301q-3 23 -3 48q0 110 64 253q80 174 195 299q115 123 194 123q55 0 166 -33q89 -25 89 -50q0 -6 -5 -11q-57 -78 -107 -187q-49 -109 -73 -208q-25 -103 -37 -187q-7 -46 -6 -83q0 -31 4 -56q10 -53 37 -53q35 0 84 123q51 129 90 313q39 186 39 350q0 27 4 47 q2 14 10 19q6 2 14 0q63 -6 115 -31q57 -27 78 -45q27 -23 29 -33q9 -24 9 -67q0 -58 -16 -150l-4 -4q-37 -262 -243 -473q-205 -209 -369 -209q-102 0 -223 98q-119 98 -135 207z" />
<glyph unicode="p" d="M-119 -246q0 102 49 252l84 275l101 331q45 145 49 158q7 22 7 37q0 20 -11 29q-18 16 -45 18t-27 18q0 29 100.5 90.5t155.5 61.5q41 0 119 -27q82 -29 125 -51q20 -10 28 -26q10 -20 11 -35l-2 -15l-4 -2q0 -25 -7 -55q162 211 238 211q119 0 231 -74q115 -74 115 -137 q0 -129 -84 -328q-82 -197 -188 -342q-104 -143 -164 -143q-272 0 -348 125q-53 -213 -54 -297q0 -47 13 -72q12 -23 30 -26q14 -2 31 -11q12 -6 12 -22q0 -41 -98 -123q-96 -82 -188 -82q-70 0 -174.5 104.5t-104.5 157.5zM461 192q6 -18 20 -18q51 0 111 111 q57 109 104 262q16 55 25 98q14 66 16 80q4 21 4 38q0 11 -2 21q-4 23 -18 23h-4q-16 0 -51 -35q-31 -31 -82 -129q-49 -94 -92 -233q-12 -53 -18.5 -86t-12.5 -74q-3 -20 -3 -34t3 -24z" />
<glyph unicode="q" horiz-adv-x="1150" d="M4 272q0 125 53.5 268.5t123 244t138.5 169.5q68 68 103 68q121 0 231 -33q115 -35 160 -88q2 -2 2 -6q49 109 72 109q45 0 125 -20.5t125 -43.5l6 -2q18 -8 26 -27q8 -16 9 -34l-2 -15q0 -33 -60 -239q0 -2 -26 -93l-56 -180q-25 -74 -39 -129q-82 -264 -82 -395 q0 -47 13 -72q12 -23 28 -26q14 -2 29 -11q12 -6 12 -22q0 -39 -92 -123q-90 -82 -196 -82q-70 0 -174.5 104.5t-104.5 157.5q0 92 57 252q10 39 62 152q-145 -154 -209 -154q-113 0 -223.5 98.5t-110.5 171.5zM457 297v-8q0 -72 35 -72l4 -4q20 0 82 129q59 125 122 299 q6 14 13 41q2 8 18 78q10 47 10 80v10q-4 37 -26 37q-68 0 -160 -215q-96 -225 -98 -375z" />
<glyph unicode="r" horiz-adv-x="1067" d="M8 258q0 80 58 252q45 129 94 252q7 21 7 35q0 20 -13 30q-23 16 -50 19q-27 2 -26 18q0 27 96 92.5t152 65.5q43 0 116 -27q80 -29 127 -55q16 -8 27 -29q8 -16 8 -32l-2 -17q0 -53 -43 -182h6q68 125 168 231q104 111 170 111q72 0 184 -102h3h2q4 -4 6 -8.5t6 -8.5 q8 -12 12 -29q2 -2 2 -12l-4 -2q0 -23 -8 -49q-10 -35 -33 -88q-20 -47 -26 -68q-2 -4 -7 -12q-35 -101 -35 -149q0 -35 19 -41q20 -6 20 -22.5t-24 -35.5q-63 -47 -195 -47q-47 0 -123 55t-88 99q-1 5 -1 12q0 34 28 92q6 18 -6 19q-12 4 -29 -13q-90 -96 -125 -342 q-14 -115 -14 -166q0 -20 -70 -63t-110 -43q-70 0 -174.5 104.5t-104.5 155.5z" />
<glyph unicode="s" horiz-adv-x="870" d="M-25 305v13q0 112 95 219q102 115 221 176q37 23 47 6q8 -14 -12 -45q-27 -47 -56 -117q-33 -82 -47 -137q-18 -68 -30 -129q-10 -46 -9 -83v-18q2 -39 19 -38q66 0 127 176q54 157 54 310q0 20 -1 40q-2 76 -37 209q-1 5 -1 10q0 42 71 119q80 86 125 86q66 0 178 -49 q115 -49 117 -88l-5 -7q0 -10 -8 -18q-14 -14 -26.5 -24.5t-36.5 -26.5l-51 -35l-58 -39q49 -85 119 -247q72 -166 72 -237q0 -67 -88 -147q-90 -82 -222 -137q-129 -55 -221 -55q-111 0 -221 110q-113 113 -115 203z" />
<glyph unicode="t" horiz-adv-x="772" d="M10 256q0 100 49 252l119 364q-39 -4 -86 -18q-35 -10 -35 16q0 23 13 48q12 23 47 55q35 31 61 55q25 23 84 62l92 59l109 68l106 65q16 10 43 10t50 -6l20 -4q27 -10 29 -25q2 -16 -6 -61q-8 -53 -62 -240q47 0 86 17q35 14 55 35l33 34q17 17 25 17l-4 -15 q14 0 30 -30q13 -25 14 -58q0 -8 -1 -16q-4 -45 -31 -72q-52 -55 -145 -55q-43 0 -95 12l-69 -237l-9 -33q-2 -6 -5 -16.5t-3 -12.5q-2 -6 -2 -12v-2v-2l-30 -137q-4 -27 -7 -35v-6q-2 -39 24 -43q3 -1 7 -1q26 0 72 25q55 33 104 84q28 29 43 29q8 0 13 -8q3 -6 3 -15 q0 -32 -40 -96q-137 -217 -308 -282q-63 -29 -106 -29h-4l-4 -2q-70 0 -174.5 104.5t-104.5 157.5z" />
<glyph unicode="u" d="M10 249.5q0 8.5 2 10.5q-2 0 -2 4v10v9q10 82 56 221q45 129 94 252q7 21 7 35q0 20 -13 30q-23 14 -50 19q-27 2 -26 18q0 27 96 92.5t152 65.5q43 0 116 -27q80 -29 127 -55q16 -8 27 -29q8 -16 8 -33l-2 -16q0 -63 -49 -205q-53 -176 -68 -245q-12 -66 -18 -138 q0 -39 28.5 -39t118.5 220q16 59 25 79q16 45 37 107l45 123l24 65q6 18 -4 31q-10 14 -10 23q0 16 62 73q59 57 96 58q43 0 123 -25q86 -27 123 -45q16 -8 26 -29q6 -14 6 -26v-6v-17l-4 -10q0 -45 -57 -238q-70 -207 -70 -311q0 -47 19 -68q18 -20 41 -20q29 0 41 -2 q18 -2 18 -21q0 -41 -98.5 -120.5t-202.5 -79.5q-59 0 -141 73q-86 76 -121 144q-164 -213 -230 -213q-100 0 -208 80q-106 80 -136 157q-8 10 -8 18.5z" />
<glyph unicode="v" horiz-adv-x="1148" d="M18 252q0 35 15 90q16 63 37 127l43 127l39 111q18 49 18 53q7 22 7 37q0 19 -11 28q-18 14 -47 18.5t-29 18.5q0 27 96.5 92.5t151.5 65.5q43 0 117 -27q78 -27 123 -55q16 -8 26 -29q8 -16 8 -32l-2 -17q0 -16 -59 -297q-59 -285 -66 -358q-4 -16 0 -29q2 -12 7 -18 q2 -4 10 -8q4 -2 10 -3h6q45 0 131 254t86 369q4 23 -8 43q-12 23 -55 23q-27 0 -31 16q-2 16 6 25q47 53 123 100q72 45 123 45q114 0 272 -117v-10q35 -29 35 -90q0 -59 -37 -143q-39 -86 -88 -175q-53 -92 -125 -180q-74 -90 -147 -160q-72 -70 -156 -112 q-82 -43 -149 -43h-2h-13h-14q-31 0 -111 22q-139 43 -258 144q-82 61 -82 94z" />
<glyph unicode="w" horiz-adv-x="1732" d="M4 252q0 92 57 252q57 164 93 252q7 22 7 37q0 19 -11 28q-18 14 -48 19q-27 2 -26 18q0 29 94 92q96 66 154 66q41 0 118 -27q82 -29 125 -51q18 -10 29 -29q10 -20 10 -35l-2 -14q0 -31 -14 -86h4q74 111 162 176q92 68 162 68q43 0 116 -27q80 -29 127 -55 q16 -8 27 -29q10 -18 6 -35v-14q0 -23 -61 -309q-59 -279 -64 -344q6 -61 37 -62q45 0 131 254t86 369q0 68 -61 68q-27 0 -31 16q-2 14 6 24q43 51 121 101q72 45 123 45q104 0 268 -123l-18 -8q35 -29 35 -87q0 -60 -37 -145q-41 -90 -89 -172q-55 -94 -124 -178 q-74 -90 -148 -160q-72 -68 -154 -112q-80 -43 -147 -43h-2h-12h-15q-31 0 -110 22q-137 39 -258 142q-82 61 -82 94q0 96 57 254l33 86l39 104l22 64q4 16 0 22t-12 4q-16 0 -59 -43t-99 -141q-53 -94 -75 -213q0 -14 -2 -27q-2 -16 -7 -26v-12h-2q-20 -145 -20 -226 q0 -20 -70 -63t-110 -43q-70 0 -174.5 104.5t-104.5 157.5z" />
<glyph unicode="x" horiz-adv-x="1101" d="M-25 268q0 70 121 166q117 92 228 144q-47 135 -88 202q-35 59 -80 74q-29 4 -29 18q0 29 94 93q95 65 148 65h2q43 0 116 -26q78 -29 123 -56q16 -10 31 -55l80 -227q96 106 96 140q0 9 -6 13q-10 8 -33 15q-18 6 -33 12q-10 6 -14 16q-2 27 68 82q109 78 153.5 78 t128.5 -47q82 -45 82 -92l-2 4q0 -27 -12 -55.5t-43 -55t-55 -49.5q-27 -23 -70 -49l-66 -41q-8 -6 -67 -39q-47 -27 -51 -31q39 -113 108 -264q25 -51 41 -61q14 -8 37 -9q16 0 37 -4q14 -2 14 -18q0 -31 -112 -117q-115 -88 -191 -88q-59 0 -147 76q-88 78 -129 203 q-2 6 -6.5 17t-10.5 31.5t-12 37.5l-33 96q-34 -68 -34 -123q0 -37 16 -68q10 -14 43 -36.5t37 -36.5q1 -3 1 -6q0 -37 -91 -111q-94 -82 -148 -82q-66 0 -154 86t-88 178z" />
<glyph unicode="y" horiz-adv-x="1132" d="M14 301v10v2v17q6 68 150 436q7 21 7 35q0 21 -13 30q-23 16 -49 19q-27 2 -27 18q0 27 96 92.5t152 65.5q43 0 116 -27q78 -29 123 -55q16 -8 27 -29q8 -18 6 -32v-17q0 -63 -49 -204q-80 -281 -86 -340q0 -41 29 -41q37 0 129 211q0 2 2 6t3 9t3 9q6 16 6 19 q96 258 113 301q6 18 -4 30q-10 14 -11 23q0 16 62 74q59 57 96 57q41 0 121 -25q86 -27 123 -45l2 -12q16 -8 26 -29q8 -14 8 -27q0 -4 -1 -8v-14q0 -45 -58 -237l-2 -5q0 -6 -2 -10q-4 -16 -6 -22q-164 -606 -225 -781q-37 -111 -199 -217t-301 -106q-76 0 -205 104.5 t-129 208.5q0 72 55.5 145.5t141.5 129.5q-76 33 -142 96q-61 59 -82 115q-6 12 -6 20zM254 -297v-15q0 -59 29 -59l-2 -2q59 0 141 185q82 182 160 421q-153 -200 -216 -200h-1h-5q-96 -182 -106 -330z" />
<glyph unicode="z" horiz-adv-x="966" d="M-90 18q-2 7 -2 13q0 20 14 37q80 115 207 258q123 139 176 139l6 -2q4 0 14.5 -1t20.5 -1l184 155q-260 47 -301 48q-31 0 -49 -25q-16 -23 -26 -49q-10 -25 -21 -25q-18 0 -35 49q-14 49 -18 84q-4 66 125 191q127 125 194 125q96 0 264 -49.5t179 -49.5q47 0 119 52 q12 12 24 20l6 8l17 13q8 8 16 10q4 1 8 1t10 -1q10 -2 19 -12q8 -9 8 -20q0 -20 -27 -46q-88 -121 -196.5 -227.5t-153.5 -116.5q-25 0 -35 2l-190 -162l123 -28q104 -25 129 -29q55 -10 72 -10q33 0 47 26q14 25 24 54q11 24 21 24l-6 -4q18 0 36 -49q16 -45 21 -82v-6 q0 -72 -125 -203q-131 -137 -205 -137q-94 0 -268 65.5t-180 65.5q-47 0 -129 -57l-50 -56v-2q-2 0 -8 -6q-4 -4 -12 -8q-4 -2 -14 -2q-27 0 -33 26z" />
<glyph unicode="{" horiz-adv-x="757" d="M41 207q-6 31 12 72t49 98q33 63 48 104q20 63 22 88q4 31 -2 37q-8 8 -12 15q-6 10 -6 24q0 6 6 12q2 2 18 15l23 16q10 6 30 19l37 20q53 31 68 76q23 82 6 190q-14 100 -14 234q0 125 47 172q33 33 139 86t145 53l-6 -4q63 0 178 -45q117 -47 117 -86q0 -14 -20 -29 l-54 -41q-31 -23 -67 -59q-33 -33 -64 -98q-29 -61 -39 -144q-6 -53 -24.5 -108.5t-65.5 -108.5t-110 -53l-2 -8q16 -4 37 -13l4 -2h4q4 -4 8 -6t8 -6q23 -29 23 -74q12 -137 -49 -405q-25 -104 -31 -190.5t0 -129.5t22 -55q78 -78 -49 -78q-100 0 -258 147.5t-178 264.5z " />
<glyph unicode="|" horiz-adv-x="462" d="M-233 -285q-12 8 28 56q55 61 359 870q301 807 344 864q39 51 86 74v-4q82 35 73 2q0 -2 -2 -6q-6 -10 -18 -25q-47 -63 -356 -880q-309 -821 -375 -891q-41 -47 -80 -60q-8 -2 -29 -6q-18 -4 -30 6z" />
<glyph unicode="}" horiz-adv-x="661" d="M-203 -53q6 20 31 24t55 0q27 -2 62 4q33 6 59 50q29 45 41 122q6 43 25 117q20 78 49 170q29 90 78 162q45 68 96 68v10q-16 0 -45 28q-27 27 -31 68q-4 53 19 139q18 70 47 170q27 86 43 162q18 80 12 137q-6 59 -45 80q-63 31 -25 51q27 12 74 13q111 0 256 -82 q150 -84 158 -160q4 -31 -19 -84q-25 -61 -57 -123q-35 -66 -51 -117q-2 -6 -6.5 -16t-6.5 -18.5t-4 -14.5q-6 -23 -6 -37v-28q0 -10 4 -23l8 -16q2 -4 11 -12l12 -9q2 -4 12.5 -6t12.5 -6q20 -14 -7 -39q-18 -16 -79 -63q-51 -39 -68 -84q-16 -47 -12 -141.5t18 -190.5 q14 -90 8 -186q-6 -92 -43 -129q-39 -39 -202 -121q-168 -84 -207 -84l-11 -17q-53 0 -165 97q-111 94 -101 135z" />
<glyph unicode="&#xa2;" horiz-adv-x="849" d="M-20 477q0 129 86 303q84 170 194 297q109 123 176 127h21h24q150 336 166 467q6 37 29 27q35 -14 76 -62q39 -47 36 -73q-4 -33 -155 -373q76 -18 145 -53q68 -35 94 -58q29 -25 37 -37q29 -43 -12 -104t-104 -98q-66 -37 -99 -23q-4 2 -8 6t-4 6v7q0 6 2 10q4 8 6 10 q2 4 6 12.5t6 12.5q20 45 27 98q6 51 -2 78q-10 29 -25 30q-39 10 -122 -172q-111 -240 -117 -403q-2 -113 61 -113q70 0 232 174l-23 2q29 35 47.5 25t3.5 -49q-70 -156 -184 -260q-113 -104 -233 -111q-125 -264 -125 -411q2 -18 -4.5 -24.5t-18.5 -2.5q-29 10 -47 68 q-18 59 -12 172q6 111 47 239q-92 45 -160 117t-67 139z" />
<glyph unicode="&#xa3;" horiz-adv-x="1114" d="M-33 178q-2 57 108.5 159.5t186.5 123.5v4q-41 109 -49 215q-82 -4 -145 -25q-35 -10 -35 16.5t49 63.5t129 62q45 201 182 428q135 225 201 225q121 0 231 -18q109 -18 183 -48q78 -31 129 -57q63 -33 84 -51q25 -23 30 -31q37 -66 -26 -172q-66 -109 -156 -178 q-94 -72 -133 -53q-6 6 -6 16q0 12 8 31q12 29 18 41q10 20 19 45l16 43q29 88 35 143q6 61 -6 92q-12 33 -39 35q-47 10 -139 -153q-96 -168 -158 -353q86 -8 168 6q18 4 26.5 -2t6.5 -14q-2 -33 -72 -86q-66 -51 -100 -57q-8 -2 -74 6l-27 -88q-14 -45 -30 -94 q328 -23 368 -13q33 6 49 35q16 31 23 53q6 25 16 25l-6 -18q18 0 37 -50q20 -53 23 -82q4 -72 -154 -256q-156 -184 -229 -184q-76 0 -303.5 90t-288.5 90q-31 0 -49 -24q-16 -23 -27 -49q-8 -25 -21 -25q-18 0 -34 47q-14 47 -19 86z" />
<glyph unicode="&#xa5;" horiz-adv-x="1142" d="M-57 1260q0 33 106 118q109 86 168 86q43 0 129 -30q94 -35 139 -58q12 -8 17 -14q6 -10 12 -25l6 -18q18 -57 60 -236q47 -209 69 -288q158 211 205 454q2 25 -12.5 49.5t-12.5 36.5q6 29 93 80q84 51 122 51q31 0 109 -41q76 -41 86 -61q6 -14 -43 -100 q-47 -80 -147 -224q-104 -147 -211 -276q94 0 129 8l-4 -10q18 4 26 -2q10 -6 6 -19q-4 -33 -73 -98q-70 -63 -99 -63q-31 0 -110 12l-13 -43q166 -18 246 -4q18 4 27 -2q10 -6 6 -19q-4 -33 -74 -86q-72 -53 -98 -53q-35 0 -141 14q-12 -59 -13 -98q0 -57 29 -74 q27 -14 55.5 -14t28.5 -20q0 -35 -110.5 -115t-198.5 -80q-70 0 -193 131q-123 133 -121 184q0 76 25 160q-82 0 -172 -24q-35 -12 -35 14q0 31 78 74q76 43 172 67q6 31 -2 66q-78 0 -164 -25q-35 -12 -35 14.5t51 59.5q53 35 125 61q-61 276 -120 373q-33 63 -91 82 q-33 8 -32 25z" />
<glyph unicode="&#xa8;" horiz-adv-x="866" d="M12 1217q0 59 17 114q12 43 47 129q31 76 49 148q2 10 6 34q0 6 2 15q2 6 2 8t6 12.5t12.5 6t24.5 -0.5q113 -18 209 -79q94 -61 80 -125q-6 -31 -82 -156q-78 -127 -74 -160l6 -2q2 -6 7 -14l4 -8v-9q0 -4 -4 -12q-2 -4 -13 -14q-12 -16 -57 -31q-43 -14 -68 -14 q-47 0 -110 61t-64 97zM424 1171q2 68 53 172q53 109 72 166q0 4 10 33l8 23q0 4 6.5 12t12.5 6q6 -4 22 0q109 -14 191 -74q84 -59 65 -116q-10 -33 -88 -136q-80 -104 -80 -135v-6l6 -12q4 -8 5 -8v-9q0 -4 -5 -8l-12 -12q-8 -14 -53 -31q-41 -14 -64 -14q-43 0 -98 59 q-55 57 -51 90z" />
<glyph unicode="&#xa9;" horiz-adv-x="1568" d="M33 340q-16 55 104 434q121 381 166 453t246 166q199 94 293 98v-2q131 2 315 -92q186 -96 307 -205q123 -111 123 -160q0 -127 -145 -418q-145 -289 -281 -421q-63 -63 -172 -156q-100 -86 -123 -86q-92 0 -276 57.5t-359 153.5q-170 94 -198 178zM223 295 q25 -37 289 -80q258 -43 406 -39h4h4q96 10 237 341.5t178 569.5l5 3q6 41 -76 86q-84 47 -193 73q-111 29 -221.5 37t-159.5 -24q-78 -49 -202 -279q-127 -233 -209 -444q-84 -215 -62 -244zM434 514q-4 104 58 240q63 141 143 233q84 96 135 96q74 0 182 -28q31 84 66 100 l2 -2q14 6 94 -18q78 -25 94 -41q10 -18 -6 -29l-10 -10l-27 -27l-39 -39q-12 -12 -45 -53q-27 -33 -47 -66q-18 -31 -43 -77q-23 -45 -37 -88q-14 -39 -24 -39q-33 0 -33 90q0 84 23 190q-84 -123 -117 -295q-41 -197 55 -196q88 0 221 131q25 23 35 12.5t-2 -33.5 q-76 -135 -180 -211q-102 -76 -205 -75q-80 0 -186 77q-102 76 -107 158z" />
<glyph unicode="&#xab;" horiz-adv-x="698" d="M18 567q-14 76 19 111q23 25 90 80q63 51 96 84q31 31 56 65q20 29 26 49q10 29 10 33q4 14 7 19q4 4 16 0q16 -4 24 -27q10 -27 11 -45q0 -20 -2 -31q-2 -16 -6.5 -24.5t-12.5 -31t-12 -30.5q-2 -6 -18 -39q-4 -6 -7.5 -14t-6.5 -12t-5 -9.5t-4 -9.5q-18 -37 -18 -69 q0 -31 10 -58q6 -18 49 -112l-4 2q8 -25 -19 -49q-12 -10 -98 -82q-72 -59 -80 -62q-23 -6 -35 17q-25 47 -47 104q-23 59 -39 141zM326 702q23 25 90 80q66 51 96 84q41 41 70 86q29 43 37 67.5t12 43t6 24.5q4 6 12 5q16 -4 25 -27q10 -27 10 -45q0 -72 -100 -258 q-10 -20 -11 -37q0 -25 2.5 -35t16.5 -43l8 -16t8 -16.5t6 -12.5l35 -55l39 -64l-2 -4q10 -25 -18 -49q-12 -10 -99 -82q-70 -57 -80 -61q-23 -6 -34 16q-193 328 -129 399z" />
<glyph unicode="&#xad;" horiz-adv-x="921" d="M80 614.5q-2 51.5 24 75.5q49 47 115 76q61 29 86 25q70 -4 154 -15l178 -18q76 -8 94 -6q37 6 59.5 34.5t30.5 28.5l-8 -8q20 0 35 -33q16 -35 18 -63q2 -55 -55 -105q-57 -47 -104 -51q-63 -4 -234 27q-164 29 -213 32q-45 2 -82 -10q-35 -12 -49 -26.5t-18 -14.5 q-29 0 -31 51.5z" />
<glyph unicode="&#xae;" horiz-adv-x="827" d="M2 967q-10 29 31 196q41 170 61 201q23 35 115 78t139 43h-2q63 2 178 -53q113 -55 201 -121q86 -66 86 -90q0 -61 -68 -197q-66 -133 -133 -203q-127 -121 -147 -121q-74 0 -256 100.5t-205 166.5zM98 940q14 -20 172 -76q156 -55 219 -55l3 2h2q51 4 114 160 q64 155 80 276l-2 -4q6 39 -178 98q-182 57 -234 27q-57 -33 -124 -219q-68 -182 -52 -209zM211 1233q-2 14 47 55q47 39 68 39q57 0 167.5 -43t110.5 -65q0 -39 -55 -95q-6 -6 -14.5 -12t-14.5 -12q4 -6 18.5 -35t20.5 -39q8 -14 19 -14q8 -1 26 22l-16 -4q16 20 16 4 q2 -6 -4 -22q-14 -45 -37 -70q-51 -43 -98 -43q-23 0 -47.5 78t-30.5 78h-2l-10 -41q-6 -25 -6 -27q-2 -6 -2 -18v-15v-12v-8q0 -4 -2 -6q-4 -8 -19 -17q-16 -10 -24 -10q-18 0 -54 37q-35 39 -35 51q0 25 17 68q4 8 30.5 67.5t30.5 67.5q2 2 2 6t2 6q-37 -16 -41 -18 q-12 -2 -12 -25q4 -10 0 -12t-6 0t-25 41q-20 35 -20 43zM397 1100q6 2 18.5 6t18.5 6q20 33 29 68q10 39 4 53q-4 4 -31 0l-12 -45v-2q-6 -14 -27 -86z" />
<glyph unicode="&#xb4;" horiz-adv-x="512" d="M4 1122.5q-10 16.5 8 36.5q70 92 88 207q16 102 27 334q4 25 72 59q70 35 102 35q70 0 153.5 -65.5t67.5 -102.5h-6q-61 -139 -194 -303q-127 -158 -269 -205q-39 -12 -49 4.5z" />
<glyph unicode="&#xb8;" horiz-adv-x="471" d="M12 -336q-4 37 37 104.5t62 61.5q16 -12 4 -53q-12 -39 -13 -86q0 -45 35 -45q39 0 67.5 55t24.5 104.5t-24 61.5q-14 4 -37 -2q-25 -6 -37 -6t-20 12q4 47 67 135q66 90 115 121l45 -8l-16 -47q-14 -39 -24.5 -74t-6.5 -49q0 -2 86 -2q20 0 59 -18.5t49 -34.5 q20 -33 -18 -132q-41 -102 -113 -188q-74 -88 -131 -88q-35 0 -121 74q-88 74 -90 104z" />
<glyph unicode="&#xbb;" horiz-adv-x="706" d="M25 834q-8 25 18 49q20 20 88 57q72 39 90 47q23 6 35 -16q195 -328 129 -400q-23 -25 -90 -79q-76 -61 -96 -82q-41 -41 -70 -86q-27 -43 -37 -68t-12 -43t-6 -25q-2 -6 -13 -2q-14 2 -24 29t-10 47q0 72 100 258q29 53 0 123q-30 76 -100 197zM346 356.5q0 20.5 2 30.5 q4 14 6 24.5t12.5 31t12.5 30.5q2 6 18 39q4 6 7.5 14.5t6.5 12.5t5 9t4 9q29 59 18 115q-10 62 -57 164l-2 -11q-10 25 18 49q20 20 88 58q72 39 90 47q23 6 35 -16q25 -47 47 -105q27 -70 41 -141q14 -78 -18 -111q-23 -25 -90 -80q-76 -61 -96 -82q-37 -37 -56 -63 q-20 -29 -26 -49q-4 -12 -9 -33q-2 -16 -6 -18q-4 -4 -16 0q-14 2 -24.5 28.5t-10.5 47z" />
<glyph unicode="&#x104;" horiz-adv-x="1247" d="M-76 465q-2 57 151.5 180t215.5 123q31 0 39 -2q117 188 202 303q-23 20 -47 21q-29 -4 -43 -33q-16 -31 -20 -31q-20 0 -26.5 37t24.5 114.5t106 159.5q78 68 183 136q100 63 127 63q31 0 79 -61q47 -59 101 -179q55 -123 96 -264q45 -154 71.5 -344t20.5 -389l-20 -8 q6 -16 -2 -51q-10 -39 -27 -56q-39 -39 -170 -116q-129 -78 -143 -80q-39 -2 -45 39q-14 209 -31 350q-121 8 -346 37q-16 -51 -31 -101q-14 -61 0 -82q16 -23 36.5 -37t18.5 -30q-10 -39 -82 -105q-74 -68 -137 -67q-39 0 -127 88t-80 131q10 43 117 233q-45 0 -74 -4 q-37 -4 -61 -51q-25 -49 -33 -49q-18 0 -30 45t-13 80zM524 717l6 -4q14 -4 197 -68q-29 127 -61 195q-14 33 -43 86q-54 -94 -99 -209zM586 -322q-12 80 67 183q80 102 178 166q100 66 154 65q31 0 2 -43q-66 -86 -98 -184q-33 -96 -33 -166q0 -65 29 -88l-4 -2q6 -2 24 -2 q20 0 31 -2q16 -4 16 -13q4 -29 -63.5 -71.5t-112.5 -42.5q-66 0 -123 63q-59 66 -67 137z" />
<glyph unicode="&#x105;" d="M-4 272q0 125 53 268.5t123 244t139 169.5q68 68 103 68q117 0 229 -33q119 -35 164 -88l6 -6q53 109 74 109q45 0 125 -21q82 -20 123 -43q16 -8 26 -29q10 -18 6 -34v-15l-8 2q0 -45 -57 -237q-70 -207 -70 -312q0 -45 19 -67q18 -20 41 -21q29 0 41 -2q18 -4 18 -20 q0 -41 -98 -123q-96 -82 -203 -82q-59 0 -141 74q-84 76 -121 141q-68 -86 -143.5 -149.5t-112.5 -63.5q-115 0 -225.5 98.5t-110.5 171.5zM440 305q-2 -82 35 -82l6 2q20 0 80 127q57 127 123 301q6 14 12 41q2 8 19 78q12 55 10 86q-4 35 -27 35q-68 0 -159 -213 q-96 -225 -99 -375zM590 -305q-12 80 67 182q80 102 179 166q100 66 153 66q31 0 2 -43q-66 -86 -98 -185q-33 -96 -33 -166q0 -65 29 -88l-4 -2q6 -2 24 -2q20 0 31 -2q16 -4 16 -12q4 -29 -63.5 -72t-112.5 -43q-66 0 -123 64q-59 66 -67 137z" />
<glyph unicode="&#x10c;" horiz-adv-x="1120" d="M25 440q2 139 77 332q76 195 168 350q98 164 193 271q98 111 151 110q125 0 230 -20q113 -23 182 -49q72 -29 129 -62q55 -33 82 -55q25 -23 31 -31q37 -66 -24.5 -172t-153.5 -178q-94 -72 -134 -53q-6 6 -6 16q0 12 8 31q12 29 19 41q10 18 18 43l17 43q29 88 35 143 q6 61 -7 92q-12 33 -39 35q-29 4 -70.5 -40t-94.5 -136q-150 -252 -213 -516q-61 -305 69 -320q146 0 375 260l-12 -2q43 49 59 37t-12 -71q-59 -115 -119 -193q-61 -80 -172 -184q-49 -47 -147 -105q-96 -57 -160 -57q-57 0 -172 66q-111 63 -211 172q-98 109 -96 202z M618 1997q4 37 80 80t148 67.5t80 24.5q49 0 123 -123q76 -125 102 -297q78 45 172 172t160 240q10 18 20 55q8 25 17 43q6 12 24 12l-4 -6q29 0 59.5 -82t2.5 -123q-92 -123 -334 -346t-334 -221q-16 -6 -31 8q-16 16 -16 27q-86 240 -185 399q-20 25 -36 35q-23 14 -27 16 q-6 2 -14 7q-6 2 -7 12z" />
<glyph unicode="&#x10d;" horiz-adv-x="866" d="M8 299q-4 133 76 305q80 178 184 299q104 123 172 123q102 0 236 -35q41 109 80 127q18 8 120.5 -23t116.5 -51v-4q14 -20 -4 -36l-2 -3q-2 -2 -5 -4t-8 -6t-9 -8q-23 -18 -62 -61q-45 -47 -80 -95q-37 -47 -82 -129q-41 -74 -69 -155q-14 -51 -31 -51q-41 0 -41 114.5 t31 243.5q-61 -88 -111 -238q-49 -147 -49 -268t72 -121q43 0 98 31q57 33 166 137q31 31 47 18.5t-2 -42.5q-92 -166 -229.5 -266.5t-239.5 -100.5q-109 0 -240 98t-135 201zM315 1632q4 37 80 80t147.5 67.5t80.5 24.5q49 0 122 -123q76 -125 103 -297q78 45 172 172 t160 240q10 18 20 55q8 25 17 43q6 13 24 13l-4 -6q29 0 59.5 -82t1.5 -123q-92 -123 -333.5 -346.5t-333.5 -221.5q-16 -6 -31 9q-16 16 -16 26q-86 240 -185 400q-20 25 -37 34q-23 14 -26 17q-6 2 -14 6q-6 2 -7 12z" />
<glyph unicode="&#x116;" horiz-adv-x="1161" d="M27 432q2 92 22 141q37 96 209 623q-4 0 -8 2t-8 6l-17 6l-20 4h-19q-10 0 -20 -6t-19 -20q0 -2 -3 -9.5t-5 -13.5q-2 -4 -5 -12t-5 -12q-2 -8 -12 -8q-14 0 -37 34q-23 33 -25 68q-2 47 117 147.5t190 104.5q68 4 400 -55q326 -57 375 -58q35 0 53 31q20 35 29 61 q10 31 22 31q20 0 43 -55.5t25 -91.5q6 -78 -160 -231.5t-242 -153.5q-58 0 -205 59l-30 -70l-15 -45q-6 -16 -6 -18l-28 -96q129 -8 221 10q49 10 61.5 -8.5t-20.5 -61.5q-104 -137 -209 -160q-47 -10 -109 7q-20 -80 -39 -160q-29 -129 74 -129q55 0 166 53 q109 51 221 178q43 47 66 35q20 -12 -6 -70q-49 -102 -103 -167q-51 -66 -168 -172q-53 -51 -143 -103q-94 -55 -156 -55q-57 0 -166 65q-104 63 -198 172q-92 106 -88 203zM655 1626q-37 53 21 191q6 16 16 36q6 14 21 25q16 12 37 10q20 -4 55 -18q18 -10 80 -37 q57 -25 96 -47q35 -18 41 -31q6 -25 6 -31q0 -8 -12 -53q-8 -33 -55 -110q-45 -76 -72 -76l-27 -4h-14h-17q-8 0 -20 4l-20 8q-16 8 -23 12l-25 19q-20 16 -28 26.5t-29 34.5q-10 12 -31 41z" />
<glyph unicode="&#x117;" horiz-adv-x="923" d="M-2 297q-2 127 78 305q82 180 186 299q106 123 178 123q174 0 346 -80t179 -172q2 -88 -129 -211q-131 -121 -308 -143q-25 -2 -30.5 10t12.5 27q162 143 215 338q29 109 -2 122q-2 2 -6 3q-51 0 -135 -170q-109 -219 -119 -392q-4 -147 92 -147q84 0 289 178l-2 -6 q31 29 47 12q14 -14 -6 -45q-113 -176 -252 -264q-139 -90 -258 -90q-106 0 -240 102q-131 100 -135 201zM553 1194q-37 53 20 190q6 16 17 37q6 10 22 25q16 12 37 10q23 -2 56 -18q18 -8 79 -37q57 -25 97 -47q35 -18 41 -31q6 -25 6 -31t-13 -53q-10 -35 -55 -111 q-45 -75 -72 -75l-28 -4h-15h-16q-8 0 -20 4l-21 8q-16 8 -22 12l-25 19q-20 16 -28.5 26t-28.5 35q-10 12 -31 41z" />
<glyph unicode="&#x118;" horiz-adv-x="1161" d="M27 432q2 92 22 141q37 96 209 623q-4 0 -8 2t-8 6l-17 6l-20 4h-19q-10 0 -20 -6t-19 -20q0 -2 -3 -9.5t-5 -13.5q-2 -4 -5 -12t-5 -12q-2 -8 -12 -8q-14 0 -37 34q-23 33 -25 68q-2 47 117 147.5t190 104.5q68 4 400 -55q326 -57 375 -58q35 0 53 31q20 35 29 61 q10 31 22 31q20 0 43 -55.5t25 -91.5q6 -78 -160 -231.5t-242 -153.5q-58 0 -205 59l-30 -70l-15 -45q-6 -16 -6 -18l-28 -96q129 -8 221 10q49 10 61.5 -8.5t-20.5 -61.5q-104 -137 -209 -160q-47 -10 -109 7q-20 -80 -39 -160q-29 -129 74 -129q55 0 166 53 q109 51 221 178q43 47 66 35q20 -12 -6 -70q-49 -102 -103 -167q-51 -66 -168 -172q-53 -51 -143 -103q-94 -55 -156 -55q-57 0 -166 65q-104 63 -198 172q-92 106 -88 203zM168 -322q-12 80 68 183q80 102 178 166q100 66 153 65q31 0 2 -43q-66 -86 -98 -184 q-33 -96 -33 -166q0 -65 29 -88l-4 -2q6 -2 24 -2q20 0 31 -2q16 -4 17 -13q4 -29 -64 -71.5t-113 -42.5q-66 0 -122 63q-59 66 -68 137z" />
<glyph unicode="&#x119;" horiz-adv-x="923" d="M-2 297q-2 127 78 305q82 180 186 299q106 123 178 123q174 0 346 -80t179 -172q2 -88 -129 -211q-131 -121 -308 -143q-25 -2 -30.5 10t12.5 27q162 143 215 338q29 109 -2 122q-2 2 -6 3q-51 0 -135 -170q-109 -219 -119 -392q-4 -147 92 -147q84 0 289 178l-2 -6 q31 29 47 12q14 -14 -6 -45q-113 -176 -252 -264q-139 -90 -258 -90q-106 0 -240 102q-131 100 -135 201zM143 -317q-12 80 68 182t178 166q100 66 154 65q31 0 2 -43q-66 -86 -99 -184q-33 -96 -32 -166q-1 -65 28 -88l-4 -2q6 -2 25 -2q20 0 31 -2q16 -4 16 -12 q4 -29 -63.5 -72t-112.5 -43q-66 0 -123 63q-59 66 -68 138z" />
<glyph unicode="&#x12e;" horiz-adv-x="784" d="M51 1073q6 147 43 221q16 35 156 103q141 68 190 67q84 0 244 -61t180 -88l-4 -12q29 -41 6 -142q-2 -6 -65 -209l-119 -393q-59 -201 -61 -260q0 -45 18 -68q18 -20 38.5 -18t39.5 0q18 -4 18 -18q-4 -37 -112 -117q-111 -80 -199 -80q-68 0 -191 133q-123 131 -122 184 q4 90 55 246l221 557q37 100 47 139q12 45 8 59.5t-14 16.5q-35 12 -88 -59q-51 -70 -111 -207q-57 -135 -116 -326q-10 -31 -21 -43q-12 -14 -24 -2q-10 12 -15 58q-8 162 -2 319zM119 -322q-12 80 67 183q80 102 179 166q100 66 153 65q31 0 2 -43q-66 -86 -98 -184 q-33 -96 -33 -166q0 -65 29 -88l-4 -2q6 -2 24 -2q20 0 31 -2q16 -4 16 -13q4 -29 -63.5 -71.5t-112.5 -42.5q-66 0 -123 63q-59 66 -67 137z" />
<glyph unicode="&#x12f;" horiz-adv-x="663" d="M14 -307q-12 80 68 182q80 100 178 166q100 66 154 65q29 0 2 -43q-63 -86 -99 -184q-33 -96 -32 -166q-1 -65 28 -88l-4 -2q6 -2 25 -2q20 0 31 -2q16 -4 16 -12q4 -29 -63.5 -72t-112.5 -43q-66 0 -123 64q-59 66 -68 137zM27 258q0 92 57 252q45 129 94 252 q16 49 -6 65q-20 16 -49 19q-27 2 -27 18q0 29 94 92q96 66 154 66q43 0 117 -27q80 -29 127 -55q16 -8 26 -29q8 -16 9 -32l-2 -17l-3 4q0 -31 -59 -237q-4 -14 -18 -64q-16 -55 -24.5 -85.5t-18.5 -80.5q-8 -43 -9 -86q0 -47 19 -67q18 -20 41 -21q29 0 41 -2 q18 -2 18 -20q0 -39 -98 -123q-96 -82 -205 -82q-70 0 -174 104.5t-104 155.5zM297 1249q-12 68 35 217q47 152 47 250q0 57 6 69.5t47 6.5q115 -14 238 -78q121 -61 121 -125q0 -45 -25 -98q-23 -49 -68 -119q-37 -59 -63 -115q-33 -70 24 -86l5 -2q43 -16 -2 -55 q-70 -47 -166 -47q-49 0 -121 67.5t-78 114.5z" />
<glyph unicode="&#x160;" horiz-adv-x="1093" d="M16.5 369q-16.5 127 75.5 264q92 139 225 213q51 29 60 16q10 -12 -15 -57q-53 -104 -81 -262q-27 -154 -19 -264.5t49 -110.5q88 0 144 197q55 195 32 442q-10 86 -32 170q-25 92 -37 147.5t0 83.5q53 121 235 197q186 78 332 78q76 0 178 -64q106 -66 109 -137 q4 -84 -70 -174q-74 -92 -174 -143l-8 -15q-41 -20 -55 -12t4 43q51 88 73.5 184.5t18.5 147.5q-4 53 -17 53q-47 -4 -110 -82q-66 -80 -62 -147q4 -88 82 -254q109 -246 125 -377q8 -90 -96 -215q-106 -127 -260 -213q-156 -88 -279 -88q-141 0 -278 127 q-133 125 -149.5 252zM561 2038q4 37 80 80t147.5 67.5t79.5 24.5q49 0 123 -123q76 -125 103 -297q78 45 172 172t159 240q10 18 21 55q8 25 16 43q7 12 25 12l-4 -6q29 0 59.5 -82t1.5 -123q-92 -123 -333.5 -346t-333.5 -221q-16 -6 -31 8q-16 16 -17 27 q-86 240 -184 399q-20 25 -37 35q-23 14 -26 16q-6 2 -15 6q-6 2 -6 13z" />
<glyph unicode="&#x161;" horiz-adv-x="870" d="M-25 305q-6 119 95 232q102 115 221 176q37 23 47 6q8 -14 -12 -45q-27 -47 -56 -117q-33 -82 -47 -137q-18 -68 -30 -129q-12 -57 -9 -101q2 -39 19 -38q66 0 127 176q61 178 53 350q-2 76 -37 209q-10 43 70 129t125 86q66 0 178 -49q115 -49 117 -88l-5 -7 q0 -10 -8 -18q-14 -14 -26.5 -24.5t-36.5 -26.5l-51 -35l-58 -39q49 -86 119 -247.5t72 -233.5q2 -68 -88 -150t-222 -137q-129 -55 -221 -55q-111 0 -221 110q-113 113 -115 203zM211 1663q2 37 80 80t147.5 67.5t79.5 24.5q49 0 123 -123q76 -125 102 -297 q76 47 172.5 172t159.5 240q10 20 21 55q8 27 16 43q7 12 25 12l-4 -6q29 0 59.5 -82t1.5 -123q-92 -123 -334 -346t-334 -221q-16 -6 -30 8q-16 16 -17 27q-86 240 -184 399q-20 25 -37 35q-23 14 -27 17q-6 2 -14 6q-6 4 -6 12z" />
<glyph unicode="&#x16a;" horiz-adv-x="1552" d="M53 762q-8 172 0 319.5t43 221.5q16 35 156 102q141 68 190 68q84 0 244 -61.5t180 -88.5q31 -45 8 -143q-2 -6 -30 -105l-72 -246l-74 -258l-20 -71q-14 -49 -24.5 -86t-18.5 -80t-6 -74t18 -43q59 -59 127 113q72 172 311 905q6 18 -4 31q-10 14 -10 22q0 16 63.5 73.5 t98.5 57.5q51 0 174 -51q125 -54 135 -68l-16 -6q10 -16 12 -43q4 -31 -2 -61q-10 -53 -14 -72l-19 -74q-10 -41 -18 -65q-10 -29 -19 -49l-6 -21q-39 -72 -223 -770l-6 -20l2 8q-4 -4 -6 -18q-2 -10 -6 -26.5t-9 -25.5q-6 -12 -12 -18q-29 -18 -94 14q-66 41 -117 62 q-12 4 -37 6q-18 8 -26 8q-102 0 -191 -31q-96 -33 -160 -63q-68 -33 -126 -33q-66 0 -138 66q-74 59 -141 141q-68 82 -64 117q4 84 50 221q41 125 133 350q84 207 90 219q8 18 33 96q10 31 18 60q6 23 6 35t-4 16q-2 4 -12 6q-37 12 -86 -55q-49 -66 -105 -201 q-53 -129 -116 -323q-10 -31 -21 -43q-12 -14 -24 -2q-10 12 -15 57zM534 1591q-2 51 25 76q53 47 111 66q61 18 90 16q455 -27 506 -18q37 6 59.5 34.5t30.5 28.5l-4 -8q20 0 34 -33q16 -35 19 -63q4 -55 -55 -105q-57 -47 -105 -51q-66 -2 -289 18q-213 20 -241 21 q-49 2 -82 -6q-35 -10 -49 -19q-14 -8 -19 -8q-29 0 -31 51z" />
<glyph unicode="&#x16b;" d="M10 249.5q0 8.5 2 10.5q-2 0 -2 4v10v9q10 82 56 221q45 129 94 252q16 49 -6 65q-23 14 -50 19q-27 2 -26 18q0 27 96 92.5t152 65.5q43 0 116 -27q80 -29 127 -55q16 -8 27 -29q8 -16 8 -33l-2 -16q0 -63 -49 -205q-53 -176 -68 -245q-12 -66 -18 -138q0 -39 28.5 -39 t118.5 220q16 59 25 79q16 45 37 107l45 123l24 65q6 18 -4 31q-10 14 -10 23q0 16 62 73q59 57 96 58q43 0 123 -25q86 -27 123 -45q16 -8 26 -29q8 -18 6 -32v-17l-4 -10q0 -45 -57 -238q-70 -207 -70 -311q0 -47 19 -68q18 -20 41 -20q29 0 41 -2q18 -2 18 -21 q0 -41 -98.5 -120.5t-202.5 -79.5q-59 0 -141 73q-86 76 -121 144q-164 -213 -230 -213q-100 0 -208 80q-106 80 -136 157q-8 10 -8 18.5zM280.5 1179.5q-1.5 51.5 24.5 75.5q53 47 111 66q61 18 90 16q455 -27 506 -18q37 6 59.5 34.5t30.5 28.5l-4 -8q20 0 35 -33 q16 -35 18 -63q4 -55 -55 -104q-57 -47 -105 -52q-66 -4 -289 19q-213 20 -241 20q-49 2 -82 -6q-35 -8 -49 -18q-14 -8 -19 -9q-29 0 -30.5 51.5z" />
<glyph unicode="&#x172;" horiz-adv-x="1552" d="M53 762q-8 172 0 319.5t43 221.5q16 35 156 102q141 68 190 68q84 0 244 -61.5t180 -88.5q31 -45 8 -143q-2 -6 -30 -105l-72 -246l-74 -258l-20 -71q-14 -49 -24.5 -86t-18.5 -80t-6 -74t18 -43q59 -59 127 113q72 172 311 905q6 18 -4 31q-10 14 -10 22q0 16 63.5 73.5 t98.5 57.5q51 0 174 -51q125 -54 135 -68l-16 -6q10 -16 12 -43q4 -31 -2 -61q-10 -53 -14 -72l-19 -74q-10 -41 -18 -65q-10 -29 -19 -49l-6 -21q-39 -72 -223 -770l-6 -20l2 8q-4 -4 -6 -18q-2 -10 -6 -26.5t-9 -25.5q-6 -12 -12 -18q-29 -18 -94 14q-66 41 -117 62 q-12 4 -37 6q-18 8 -26 8q-102 0 -191 -31q-96 -33 -160 -63q-68 -33 -126 -33q-66 0 -138 66q-74 59 -141 141q-68 82 -64 117q4 84 50 221q41 125 133 350q84 207 90 219q8 18 33 96q10 31 18 60q6 23 6 35t-4 16q-2 4 -12 6q-37 12 -86 -55q-49 -66 -105 -201 q-53 -129 -116 -323q-10 -31 -21 -43q-12 -14 -24 -2q-10 12 -15 57zM741 -315q-12 80 68 182q80 100 178 166q100 66 154 65q31 0 2 -43q-66 -86 -99 -184q-33 -96 -32 -166q-1 -65 28 -88l-4 -2q6 -2 25 -2q20 0 31 -2q16 -4 16 -12q4 -29 -63.5 -72t-112.5 -43 q-66 0 -123 63q-59 66 -68 138z" />
<glyph unicode="&#x173;" d="M10 249.5q0 8.5 2 10.5q-2 0 -2 4v10v9q10 82 56 221q45 129 94 252q16 49 -6 65q-23 14 -50 19q-27 2 -26 18q0 27 96 92.5t152 65.5q43 0 116 -27q80 -29 127 -55q16 -8 27 -29q8 -16 8 -33l-2 -16q0 -63 -49 -205q-53 -176 -68 -245q-12 -66 -18 -138q0 -39 28.5 -39 t118.5 220q16 59 25 79q16 45 37 107l45 123l24 65q6 18 -4 31q-10 14 -10 23q0 16 62 73q59 57 96 58q43 0 123 -25q86 -27 123 -45q16 -8 26 -29q8 -18 6 -32v-17l-4 -10q0 -45 -57 -238q-70 -207 -70 -311q0 -47 19 -68q18 -20 41 -20q29 0 41 -2q18 -2 18 -21 q0 -41 -98.5 -120.5t-202.5 -79.5q-59 0 -141 73q-86 76 -121 144q-164 -213 -230 -213q-100 0 -208 80q-106 80 -136 157q-8 10 -8 18.5zM621 -319q-12 80 67 182q80 100 178 166q100 66 154 65q29 0 2 -43q-63 -86 -98 -184q-33 -96 -33 -166q0 -65 29 -88l-5 -2 q6 -2 25 -2q20 0 31 -2q16 -4 16 -13q4 -29 -63.5 -71.5t-112.5 -42.5q-66 0 -123 63q-59 66 -67 138z" />
<glyph unicode="&#x17d;" horiz-adv-x="1204" d="M-145 18q-6 27 16 56q98 143 264 336q168 197 227 196q27 0 37 -2l199 189q139 129 170 159q-412 51 -455 52q-35 0 -55 -25q-20 -23 -33 -51q-12 -27 -24 -27q-20 0 -39 53q-20 55 -23 93q-4 76 168 243q174 170 244 170q109 0 387.5 -55t288.5 -55q47 0 135 59q4 4 6 8 q4 8 6 10q27 19 43 19v-6q31 0 37 -29t-14 -55q-10 -10 -27 -31v-2q-106 -135 -235 -260q-129 -127 -174 -135q-2 -2 -23 -2q-113 -123 -358 -365q356 -68 401 -67q33 0 51 30q20 35 29 62q10 31 22 30q20 0 43 -55t25 -94q4 -78 -174 -276.5t-260 -198.5 q-104 0 -362.5 71.5t-264.5 71.5q-53 0 -143 -63q-10 -10 -56 -62v-2q-29 -18 -43 -18q-31 0 -36 28zM539 2023q2 37 79.5 80t147.5 67.5t80 24.5q49 0 123 -122q72 -121 100 -297q78 47 172 172t160 239q10 20 20 56q8 27 17 43q6 12 24 12l-2 -6q29 0 59.5 -82t2.5 -123 q-92 -123 -334 -346t-334 -221q-16 -6 -31 8q-16 16 -16 26q-86 240 -184 400q-20 25 -37 35q-23 14 -27 16q-6 2 -14 6q-6 4 -6 12z" />
<glyph unicode="&#x17e;" horiz-adv-x="966" d="M-90 18q-6 27 12 50q80 115 207 258q123 139 176 139l6 -2q4 0 14.5 -1t20.5 -1l184 155q-260 47 -301 48q-31 0 -49 -25q-16 -23 -26 -49q-10 -25 -21 -25q-18 0 -35 49q-14 49 -18 84q-4 66 125 191q127 125 194 125q96 0 264 -49.5t179 -49.5q47 0 119 52q12 12 24 20 l6 8l17 13q8 8 16 10t18.5 0t18.5 -12q23 -25 -19 -66q-88 -121 -196.5 -227.5t-153.5 -116.5q-25 0 -35 2l-190 -162l123 -28q104 -25 129 -29q55 -10 72 -10q33 0 47 26q14 25 24 54q11 24 21 24l-6 -4q18 0 36 -49q16 -45 21 -82q6 -72 -125 -209t-205 -137 q-94 0 -268 65.5t-180 65.5q-47 0 -129 -57l-50 -56v-2q-2 0 -8 -6q-4 -4 -12 -8q-4 -2 -14 -2q-27 0 -33 26zM291 1581q4 37 79.5 80t147.5 67.5t80 24.5q49 0 123 -123q76 -125 102 -297q78 47 172.5 172t159.5 240q10 20 21 55q8 27 16 43q7 12 25 12l-5 -6 q29 0 60 -81.5t2 -122.5q-92 -123 -334 -346.5t-334 -221.5q-16 -6 -31 8q-16 16 -16 27q-86 240 -184 399q-20 25 -37 35q-23 14 -27 17q-6 2 -14 6q-6 4 -6 12z" />
<glyph unicode="&#x2c6;" horiz-adv-x="923" d="M39 1235q90 121 323 336q236 215 326 213q16 6 31 -8q16 -16 16 -27q59 -168 164 -338q20 -25 36.5 -35t27.5 -14q12 -4 16 -6q6 -4 6 -13q-2 -35 -74 -94q-68 -55 -139 -98q-66 -39 -74 -39q-49 0 -123 123q-72 121 -100 297q-133 -82 -309 -393q-10 -20 -21 -56 q-10 -37 -14 -43q-7 -12 -25 -12h-6q-29 0 -59 84q-31 82 -2 123z" />
<glyph unicode="&#x2da;" horiz-adv-x="669" d="M23 1352q4 12 6 39q2 23 16 67q41 78 160 135q117 57 201 58q66 0 165 -68q102 -68 105 -119q4 -14 0 -37q-4 -25 -8 -36q-6 -14 -19 -43q-14 -35 -20 -43l-27 -52l-27 -53q-23 -41 -96 -78t-117 -37q-133 0 -245 97q-110 96 -92 178zM223 1280q0 -29 10.5 -45t28.5 -12 q12 2 25 10q8 6 24 31q14 23 31 71q84 221 -6 221h-4q-29 0 -56 -49q-27 -47 -45 -149q-8 -41 -8 -78z" />
<glyph unicode="&#x2dc;" horiz-adv-x="974" d="M10 1217q-4 66 100.5 159.5t170.5 98.5q59 4 282 -50q219 -51 262 -51q33 0 47 27q16 29 25 55q9 27 21 27l-5 2q18 0 37 -49q16 -45 21 -82q4 -72 -101 -178q-104 -109 -178 -109q-84 0 -270 57.5t-258 57.5q-31 0 -49 -25q-16 -23 -27 -49q-8 -25 -20 -25q-18 0 -37 50 q-16 45 -21 84z" />
<glyph unicode="&#x2000;" horiz-adv-x="1156" />
<glyph unicode="&#x2001;" horiz-adv-x="2312" />
<glyph unicode="&#x2002;" horiz-adv-x="1156" />
<glyph unicode="&#x2003;" horiz-adv-x="2312" />
<glyph unicode="&#x2004;" horiz-adv-x="770" />
<glyph unicode="&#x2005;" horiz-adv-x="578" />
<glyph unicode="&#x2006;" horiz-adv-x="385" />
<glyph unicode="&#x2007;" horiz-adv-x="385" />
<glyph unicode="&#x2008;" horiz-adv-x="289" />
<glyph unicode="&#x2009;" horiz-adv-x="462" />
<glyph unicode="&#x200a;" horiz-adv-x="128" />
<glyph unicode="&#x2010;" horiz-adv-x="921" d="M80 614.5q-2 51.5 24 75.5q49 47 115 76q61 29 86 25q70 -4 154 -15l178 -18q76 -8 94 -6q37 6 59.5 34.5t30.5 28.5l-8 -8q20 0 35 -33q16 -35 18 -63q2 -55 -55 -105q-57 -47 -104 -51q-63 -4 -234 27q-164 29 -213 32q-45 2 -82 -10q-35 -12 -49 -26.5t-18 -14.5 q-29 0 -31 51.5z" />
<glyph unicode="&#x2011;" horiz-adv-x="921" d="M80 614.5q-2 51.5 24 75.5q49 47 115 76q61 29 86 25q70 -4 154 -15l178 -18q76 -8 94 -6q37 6 59.5 34.5t30.5 28.5l-8 -8q20 0 35 -33q16 -35 18 -63q2 -55 -55 -105q-57 -47 -104 -51q-63 -4 -234 27q-164 29 -213 32q-45 2 -82 -10q-35 -12 -49 -26.5t-18 -14.5 q-29 0 -31 51.5z" />
<glyph unicode="&#x2012;" horiz-adv-x="921" d="M80 614.5q-2 51.5 24 75.5q49 47 115 76q61 29 86 25q70 -4 154 -15l178 -18q76 -8 94 -6q37 6 59.5 34.5t30.5 28.5l-8 -8q20 0 35 -33q16 -35 18 -63q2 -55 -55 -105q-57 -47 -104 -51q-63 -4 -234 27q-164 29 -213 32q-45 2 -82 -10q-35 -12 -49 -26.5t-18 -14.5 q-29 0 -31 51.5z" />
<glyph unicode="&#x2013;" horiz-adv-x="1146" d="M24.5 610.5q-1.5 51.5 24.5 75.5q51 49 139 86t111 35q63 -4 348 -49q289 -47 357 -35q37 6 59.5 34.5t30.5 28.5l-7 -8q20 0 35 -33q16 -35 19 -63q2 -59 -62 -117q-63 -57 -106 -57q-121 0 -414 59q-289 57 -352 56q-51 -4 -84 -19q-33 -14 -49 -31q-14 -14 -19 -14 q-29 0 -30.5 51.5z" />
<glyph unicode="&#x2014;" horiz-adv-x="1828" d="M110.5 618.5q-1.5 51.5 24.5 75.5q51 49 139 86t111 35q55 -2 315 -41q266 -39 486 -59q238 -23 379 0q29 2 43 24q14 18 24 41q11 19 19 19l-9 4q20 0 35 -45q14 -45 19 -80q4 -59 -62 -117q-63 -57 -106 -57q-272 0 -737 65q-459 66 -498 62q-51 -4 -84 -19 q-33 -14 -49 -30q-14 -14 -19 -15q-29 0 -30.5 51.5z" />
<glyph unicode="&#x2018;" horiz-adv-x="446" d="M0 1026q0 6 16 61q12 43 43 111q33 70 105 176q74 106 158 166q27 20 49 29q27 10 39 10q16 0 18 -8q6 -16 -8 -43q-4 -6 -16.5 -30.5t-22.5 -41.5q-25 -43 -37 -74l-8 -6q-31 -63 -25 -106q6 -41 19 -58q12 -16 36.5 -30.5t30.5 -24.5q31 -45 -16 -200.5t-111 -237.5 q-23 -29 -47 -19q-12 6 -12 19q0 6 4 31q4 20 -2 41q-12 43 -109 118q-96 74 -98 80q-6 27 -6 37z" />
<glyph unicode="&#x2019;" horiz-adv-x="450" d="M18 682q-6 10 5 33q8 18 30 57q25 43 35 68l-2 -2q25 63 25 112q0 51 -9 68q-12 23 -32 47q-6 8 -13.5 15t-11.5 12l-2 4q-31 47 8 184t105 221q18 25 47 29q16 -4 16 -19q0 -23 -2 -36q-4 -23 2 -45q8 -45 115 -93q104 -47 108 -53q4 -8 4 -12v-10q0 -6 -2 -12.5 t-2 -14.5q0 -6 -6 -21l-8 -24q-12 -43 -43 -119q-31 -74 -104.5 -190.5t-155.5 -173.5q-25 -14 -49 -25q-23 -8 -39.5 -8t-18.5 8z" />
<glyph unicode="&#x201a;" horiz-adv-x="446" d="M16 -317q-6 10 4 32q8 18 31 58q25 42 35 67l-2 -2q25 63 25 113q0 51 -9 67q-12 23 -32 48q-6 8 -13.5 15t-9.5 11l-4 4q-31 47 8 185q41 137 105 221q18 25 47 28q16 -4 16 -18q0 -23 -2 -37q-4 -23 2 -45q8 -45 115 -92q104 -47 108 -53q4 -8 4 -13v-10q0 -6 -2 -12 t-2 -14q0 -6 -6 -21q-2 -4 -3 -9t-3 -9t-2 -7q-12 -43 -43 -118q-31 -74 -104.5 -191t-155.5 -174q-25 -14 -49 -24q-23 -8 -39.5 -8.5t-18.5 8.5z" />
<glyph unicode="&#x201c;" horiz-adv-x="761" d="M2 1030q0 6 16 55q23 80 95 207q74 133 184 213q25 16 43 23q23 6 33 4q14 -4 16 -12q6 -8 -6 -37q-4 -8 -9 -18.5t-13.5 -26t-12.5 -25.5q-23 -45 -31 -70q-14 -41 -18 -67q-4 -29 6 -47t18.5 -30.5t24.5 -24.5q20 -16 23 -19q106 262 274 383q27 20 49 29q27 10 39 10 q16 0 19 -8q6 -16 -9 -43q-2 -6 -15 -31t-23 -41q-25 -43 -37 -74l2 -8q-31 -63 -25 -106q6 -41 19 -58q12 -16 36.5 -30.5t30.5 -24.5q31 -45 -16 -200.5t-111 -237.5q-23 -29 -47 -19q-12 6 -12 19q0 6 4 30q4 20 -2 41q-2 18 -19 37q-14 18 -39 39l-38 35q-33 27 -45 35 q-20 14 -39 26q-35 -115 -97 -198q-25 -27 -45 -19q-6 4 -14 13q-6 6 -6 12q0 10 -2 18l-4 25q-10 45 -99 115q-88 72 -92 73q-6 25 -6 33z" />
<glyph unicode="&#x201d;" horiz-adv-x="774" d="M29 694q-6 10 4 33q8 18 30 57q25 43 35 68q25 66 25 113q0 51 -8 67q-12 23 -33 47q-6 8 -13.5 15.5l-11.5 11.5l-2 4q-31 47 8 184q39 139 105 222q18 25 47 28q16 -4 16 -18q0 -23 -2 -37q-4 -23 2 -45q2 -20 29 -43q23 -18 49 -33l66 -29q39 -18 49 -24q27 86 78 153 q20 25 45 25q14 -4 16 -8q4 -8 4 -29q0 -16 4 -37q10 -45 104.5 -84t98.5 -47l6 -4q4 -8 4 -12v-8v-13q0 -10 -2 -14q-4 -6 -6 -18q-4 -16 -6 -23q-20 -78 -98 -221q-78 -145 -189 -225q-25 -16 -43 -22.5t-32 -2.5q-12 4 -17 10q-6 14 2 29q2 4 11.5 19.5t15.5 27.5 q16 29 31 59q25 59 24 105q0 45 -6 63q-6 16 -31 45q-6 8 -13 15.5t-11 11.5l-2 4q-117 -279 -277 -395q-25 -14 -49 -25q-23 -8 -39 -8t-18 8z" />
<glyph unicode="&#x201e;" horiz-adv-x="778" d="M25 -311q-6 10 4 32q8 18 30 58q25 43 35 67q25 66 25 113q0 51 -8 68q-12 23 -33 47q-6 8 -13.5 15t-11.5 11l-2 4q-31 47 8 185q39 137 105 221q18 25 47 29q16 -4 16 -19q0 -23 -2 -37q-4 -23 2 -45q2 -20 29 -43q23 -18 49 -33l66 -28q39 -18 49 -25q27 86 78 154 q23 25 45 24q14 -4 16 -8q4 -8 4 -28q0 -16 4 -37q10 -45 104.5 -84t98.5 -47l6 -4q4 -8 4 -13v-8v-12q0 -10 -2 -15q-4 -6 -6 -18q-4 -16 -6 -23q-20 -76 -98 -221t-189 -225q-25 -16 -43 -22.5t-33 -2.5q-12 4 -16 11q-6 14 2 28q2 4 11.5 19.5t15.5 27.5q16 29 30 60 q25 57 25 104q0 45 -6 64q-6 16 -31 45q-6 8 -13 15l-11 11l-2 5q-117 -279 -277 -396q-25 -16 -49 -24q-23 -8 -39 -8t-18 8z" />
<glyph unicode="&#x2022;" horiz-adv-x="593" d="M92 592q-59 72 31 295q14 35 24 57q8 16 31 39t60 18q33 -2 88 -28l71 -33l74 -37l66 -33q39 -23 55 -32q25 -16 29 -27l6 -12q4 -8 4 -15v-14q0 -10 -2 -18l-4 -19l-7 -24q-2 -6 -8 -31q-20 -59 -88 -172q-71 -117 -110 -117l-9 -6q-37 0 -73 10q-31 8 -99 60 q-66 49 -139 139z" />
<glyph unicode="&#x2026;" horiz-adv-x="1417" d="M63 168q-41 59 25 219q16 37 18 41q6 12 23 29q14 14 43 12q31 -4 68 -20q14 -6 92 -43q92 -45 114 -58q39 -23 48 -37q4 -8 4 -12v-10q0 -6 -2 -13l-2 -14q0 -4 -7 -20l-8 -25q-12 -41 -67 -129t-82 -88h-15h-18h-21q-12 0 -24 4l-25 10q-20 8 -28 15q-25 18 -31 22 q-12 8 -33 29l-35 39q-18 20 -37 49zM543 168q-41 59 24 219q16 37 19 41q6 12 22 29q14 14 43 12q31 -4 68 -20q14 -6 92 -43q92 -45 115 -58q39 -23 47 -37q4 -8 4 -12v-10q0 -6 -2 -13l-2 -14q0 -4 -6 -20q-2 -4 -3 -9.5t-3.5 -9.5t-2.5 -6q-12 -41 -67 -129t-82 -88h-14 h-19h-20q-12 0 -25 4l-24 10q-20 8 -29 15q-25 18 -31 22q-12 8 -33 29l-34 39q-18 20 -37 49zM1022 168q-41 59 25 219q10 29 18 41q12 16 25 29q16 14 43 12q31 -4 67 -20q16 -6 92 -43q92 -45 115 -58q39 -23 47 -37q4 -8 4 -12v-10q0 -6 -2 -13l-2 -14q0 -4 -6 -20 q-2 -4 -3 -9.5t-3 -9.5t-2 -6q-12 -41 -68 -129q-55 -88 -82 -88h-16h-19h-20q-12 0 -25 4l-24 10q-20 8 -29 15q-25 18 -31 22q-12 8 -32 29l-35 39q-18 20 -37 49z" />
<glyph unicode="&#x202f;" horiz-adv-x="462" />
<glyph unicode="&#x205f;" horiz-adv-x="578" />
<glyph unicode="&#x20ac;" horiz-adv-x="1222" d="M-72 596q0 23 45 53q51 35 113 60q16 53 31 86q-53 -2 -107 -19q-35 -12 -35 12q0 27 56 64q51 35 135 63q100 223 223 379q127 160 197 160q121 0 225 -18q109 -18 172 -45q76 -31 121 -58q59 -35 78 -51q25 -20 30 -31q37 -61 -18 -147q-53 -84 -139 -137 q-82 -51 -123 -33l-8 -10q-4 2 -9 12q-2 10 0 25q2 14 11 28l14 35q10 20 12 37q74 207 -20 221q-45 8 -107.5 -90t-146.5 -305q154 -12 246 4q16 4 24 -2t6 -15q-4 -37 -73.5 -98t-98.5 -61q-53 0 -159 14q-4 -16 -13 -41q188 -27 299 -8q18 4 26.5 -2t6.5 -14 q-4 -33 -74 -86q-72 -53 -98 -54q-53 0 -190 19q-14 -104 18 -172q33 -68 100 -68q125 0 357 264q43 49 55 37t-6 -74q-27 -92 -92 -196q-63 -102 -154 -180q-49 -39 -166 -99q-119 -59 -180 -59q-57 0 -172 65q-111 63 -211 172q-98 106 -94 203q0 76 20 166 q-53 -6 -92 -20q-35 -12 -35 14z" />
<glyph unicode="&#x2122;" horiz-adv-x="1212" d="M-35 1370q-2 27 55.5 74t92.5 49q18 2 139 -10q117 -12 203 -19q84 -6 139 11q8 20 14 20h2h2q39 -4 90 -98t86 -234q23 37 68 123q47 90 68 115v2q0 10 24 43q25 35 41 35q27 0 111 -21q90 -23 92 -26q10 -10 6 -41q-2 -20 -10 -62q-8 -35 -14 -57l-9 -29l-14 -4 q-2 -2 -14 -55q-12 -51 -24.5 -116.5t-12.5 -92.5q-2 -33 22 -37q25 -2 25 -8q0 -14 -49 -51t-88 -37q-33 0 -84 57q-53 59 -54 80q4 39 25 104l68 195h-9q-37 -68 -86 -162q-55 -106 -61 -117l4 -32q4 -29 -12 -41q-76 -49 -162 -78q-16 0 -21 16q-33 201 -65 312 q-33 -168 -37 -195q-4 -31 18.5 -47t22.5 -18q0 -14 -30.5 -45t-57.5 -31q-16 0 -55 39t-39 57t135 350q-12 -6 -76 -2q-59 2 -88 12q-16 -63 -18 -65q0 -6 -15 -55q-14 -47 -30 -115q-16 -66 -17 -88q-2 -33 22.5 -37t24.5 -8q0 -16 -49 -49q-51 -35 -88 -35q-29 0 -80 57 q-53 59 -53 80q0 31 23 104l38 115l50 148q-49 18 -101 18q-18 0 -30.5 -47t-22.5 -47q-8 0 -20 39q-10 35 -15 57z" />
<glyph unicode="&#x25fc;" horiz-adv-x="1034" d="M0 0v1034h1034v-1034h-1034z" />
</font>
</defs>
</svg>
